<svg xmlns="http://www.w3.org/2000/svg" id="a" width="865.76" height="682.89" viewBox="0 0 865.76 682.89">
  <g>
    <ellipse cx="173.67" cy="123.79" rx="6.59" ry="9.41" transform="translate(-27.42 52.74) rotate(-16.02)" fill="#f2b3c1"></ellipse>
    <path d="M174.95,133.52c-1.42,0-2.89-.57-4.24-1.66-1.77-1.43-3.14-3.6-3.86-6.11-.72-2.51-.71-5.08,.03-7.23,.76-2.21,2.2-3.72,4.05-4.25h0c3.76-1.08,8.04,2.32,9.55,7.57,1.51,5.25-.32,10.4-4.08,11.48-.48,.14-.96,.2-1.45,.2Zm-3.74-18.29h0c-1.53,.44-2.73,1.72-3.38,3.62-.67,1.96-.68,4.31-.01,6.63,.67,2.32,1.92,4.31,3.53,5.61,1.56,1.26,3.26,1.71,4.79,1.27,3.23-.93,4.75-5.52,3.39-10.24-1.36-4.72-5.08-7.81-8.31-6.88Z" fill="#002346"></path>
  </g>
  <g>
    <ellipse cx="231.65" cy="123.42" rx="9.41" ry="6.59" transform="translate(33.42 295.45) rotate(-69)" fill="#f2b3c1"></ellipse>
    <path d="M230,133.02c-.65,0-1.29-.12-1.9-.35-1.8-.69-3.1-2.32-3.67-4.59-.55-2.2-.34-4.76,.6-7.2,.94-2.44,2.49-4.49,4.37-5.76,1.94-1.31,4-1.65,5.8-.96,1.8,.69,3.1,2.32,3.67,4.59,.55,2.2,.34,4.76-.6,7.2-.94,2.44-2.49,4.49-4.37,5.76-1.28,.86-2.62,1.31-3.89,1.31Zm3.3-18.2c-1.08,0-2.23,.38-3.34,1.13-1.71,1.16-3.14,3.03-4,5.29h0c-.86,2.25-1.06,4.6-.56,6.6,.48,1.94,1.57,3.33,3.06,3.9,1.49,.57,3.22,.27,4.88-.85,1.71-1.16,3.14-3.03,4-5.29,.86-2.25,1.06-4.6,.56-6.6-.48-1.94-1.57-3.33-3.06-3.9-.49-.19-1.01-.28-1.54-.28Z" fill="#002346"></path>
  </g>
  <g>
    <rect x="307.96" y="459.43" width="180.76" height="127.95" fill="#d1d3d4"></rect>
    <path d="M489.22,587.88h-181.77v-128.96h181.77v128.96Zm-180.76-1.01h179.75v-126.94h-179.75v126.94Z" fill="#002346"></path>
  </g>
  <g>
    <rect x="281.57" y="446.21" width="197.6" height="49.03" fill="#fff"></rect>
    <path d="M479.67,495.74h-198.61v-50.04h198.61v50.04Zm-197.6-1.01h196.59v-48.02h-196.59v48.02Z" fill="#002346"></path>
  </g>
  <g>
    <g>
      <rect x="290.35" y="456.29" width="38.9" height="5.99" fill="#e6e7e8"></rect>
      <path d="M329.75,462.79h-39.91v-7h39.91v7Zm-38.9-1.01h37.89v-4.98h-37.89v4.98Z" fill="#002346"></path>
    </g>
    <g>
      <rect x="339.35" y="456.29" width="128.91" height="5.99" fill="#e6e7e8"></rect>
      <path d="M468.76,462.79h-129.92v-7h129.92v7Zm-128.91-1.01h127.9v-4.98h-127.9v4.98Z" fill="#002346"></path>
    </g>
    <g>
      <rect x="339.35" y="466.79" width="128.91" height="5.99" fill="#e6e7e8"></rect>
      <path d="M468.76,473.29h-129.92v-7h129.92v7Zm-128.91-1.01h127.9v-4.98h-127.9v4.98Z" fill="#002346"></path>
    </g>
    <g>
      <rect x="339.35" y="477.29" width="128.91" height="5.99" fill="#e6e7e8"></rect>
      <path d="M468.76,483.79h-129.92v-7h129.92v7Zm-128.91-1.01h127.9v-4.98h-127.9v4.98Z" fill="#002346"></path>
    </g>
    <g>
      <rect x="290.35" y="466.79" width="38.9" height="5.99" fill="#e6e7e8"></rect>
      <path d="M329.75,473.29h-39.91v-7h39.91v7Zm-38.9-1.01h37.89v-4.98h-37.89v4.98Z" fill="#002346"></path>
    </g>
    <g>
      <rect x="290.35" y="477.25" width="38.9" height="5.99" fill="#e6e7e8"></rect>
      <path d="M329.75,483.74h-39.91v-7h39.91v7Zm-38.9-1.01h37.89v-4.98h-37.89v4.98Z" fill="#002346"></path>
    </g>
  </g>
  <g>
    <rect x="281.57" y="506.71" width="197.6" height="49.03" fill="#00254F" data-secondary="true"></rect>
    <path d="M479.67,556.23h-198.6v-50.03h198.6v50.03Zm-197.6-1h196.6v-48.03h-196.6v48.03Z" fill="#002346"></path>
  </g>
  <g>
    <polygon points="508.81 495.16 479.23 495.24 479.23 446.28 508.81 446.21 508.81 495.16" fill="#e6e7e8"></polygon>
    <path d="M478.72,495.74v-49.96l30.59-.08v49.96l-30.59,.08Zm1.01-48.95v47.94l28.58-.08v-47.94l-28.58,.08Z" fill="#002346"></path>
  </g>
  <g>
    <polygon points="508.88 555.66 479.17 555.73 479.17 506.71 508.88 506.62 508.88 555.66" fill="#00254F" data-secondary="true"></polygon>
    <path d="M478.67,556.24v-50.03l30.71-.08v50.03l-30.71,.08Zm1-49.03v48.03l28.71-.08v-48.03l-28.71,.08Z" fill="#002346"></path>
  </g>
  <g>
    <polygon points="507.05 616.99 477.35 617.07 477.35 568.04 507.05 567.96 507.05 616.99" fill="#e6e7e8"></polygon>
    <path d="M476.84,617.58v-50.04l30.71-.09v50.05l-30.71,.08Zm1.01-49.03v48.02l28.69-.08v-48.03l-28.69,.09Z" fill="#002346"></path>
  </g>
  <g>
    <rect x="281.18" y="568.04" width="197.6" height="49.03" fill="#fff"></rect>
    <path d="M479.28,617.58h-198.61v-50.04h198.61v50.04Zm-197.6-1.01h196.59v-48.02h-196.59v48.02Z" fill="#002346"></path>
  </g>
  <g>
    <rect x="515.81" y="169.63" width="146.06" height="447.42" fill="#fff"></rect>
    <path d="M662.37,617.56h-147.07V169.13h147.07v448.43Zm-146.06-1.01h145.05V170.14h-145.05v446.41Z" fill="#002346"></path>
  </g>
  <g>
    <polygon points="778.1 617.07 662.86 617.07 662.65 169.63 778.1 169.63 778.1 617.07" fill="#e6e7e8"></polygon>
    <path d="M778.6,617.58h-116.25v-.51l-.21-447.95h116.46v448.45Zm-115.24-1.01h114.23V170.14h-114.44l.21,446.43Z" fill="#002346"></path>
  </g>
  <g>
    <rect x="523.88" y="241.24" width="123.89" height="34.88" fill="#e6e7e8"></rect>
    <path d="M648.28,276.63h-124.9v-35.89h124.9v35.89Zm-123.89-1.01h122.88v-33.87h-122.88v33.87Z" fill="#002346"></path>
  </g>
  <g>
    <rect x="527.35" y="245.63" width="6.94" height="26.69" fill="#fff"></rect>
    <path d="M534.79,272.83h-7.95v-27.7h7.95v27.7Zm-6.94-1.01h5.93v-25.68h-5.93v25.68Z" fill="#002346"></path>
  </g>
  <g>
    <rect x="551.28" y="249.04" width="6.82" height="20.51" fill="#fff"></rect>
    <path d="M558.6,270.06h-7.83v-21.52h7.83v21.52Zm-6.82-1.01h5.81v-19.5h-5.81v19.5Z" fill="#002346"></path>
  </g>
  <g>
    <rect x="561.13" y="249.04" width="6.82" height="20.51" fill="#fff"></rect>
    <path d="M568.45,270.06h-7.83v-21.52h7.83v21.52Zm-6.82-1.01h5.81v-19.5h-5.81v19.5Z" fill="#002346"></path>
  </g>
  <g>
    <rect x="570.98" y="249.04" width="6.82" height="20.51" fill="#fff"></rect>
    <path d="M578.3,270.06h-7.83v-21.52h7.83v21.52Zm-6.82-1.01h5.81v-19.5h-5.81v19.5Z" fill="#002346"></path>
  </g>
  <g>
    <rect x="580.81" y="249.04" width="6.82" height="20.51" fill="#fff"></rect>
    <path d="M588.13,270.06h-7.83v-21.52h7.83v21.52Zm-6.82-1.01h5.81v-19.5h-5.81v19.5Z" fill="#002346"></path>
  </g>
  <g>
    <rect x="590.66" y="249.04" width="6.82" height="20.51" fill="#fff"></rect>
    <path d="M597.98,270.06h-7.83v-21.52h7.83v21.52Zm-6.82-1.01h5.81v-19.5h-5.81v19.5Z" fill="#002346"></path>
  </g>
  <g>
    <rect x="600.51" y="249.04" width="6.82" height="20.51" fill="#fff"></rect>
    <path d="M607.83,270.06h-7.83v-21.52h7.83v21.52Zm-6.82-1.01h5.81v-19.5h-5.81v19.5Z" fill="#002346"></path>
  </g>
  <g>
    <rect x="610.36" y="249.04" width="6.82" height="20.51" fill="#fff"></rect>
    <path d="M617.68,270.06h-7.83v-21.52h7.83v21.52Zm-6.82-1.01h5.81v-19.5h-5.81v19.5Z" fill="#002346"></path>
  </g>
  <g>
    <rect x="620.21" y="249.04" width="6.82" height="20.51" fill="#fff"></rect>
    <path d="M627.53,270.06h-7.83v-21.52h7.83v21.52Zm-6.82-1.01h5.81v-19.5h-5.81v19.5Z" fill="#002346"></path>
  </g>
  <g>
    <rect x="630.06" y="249.04" width="6.82" height="20.51" fill="#fff"></rect>
    <path d="M637.38,270.06h-7.83v-21.52h7.83v21.52Zm-6.82-1.01h5.81v-19.5h-5.81v19.5Z" fill="#002346"></path>
  </g>
  <g>
    <rect x="523.88" y="291.36" width="123.89" height="34.88" fill="#e6e7e8"></rect>
    <path d="M648.28,326.75h-124.9v-35.89h124.9v35.89Zm-123.89-1.01h122.88v-33.87h-122.88v33.87Z" fill="#002346"></path>
  </g>
  <g>
    <rect x="527.35" y="295.75" width="6.94" height="26.69" fill="#fff"></rect>
    <path d="M534.79,322.94h-7.95v-27.7h7.95v27.7Zm-6.94-1.01h5.93v-25.68h-5.93v25.68Z" fill="#002346"></path>
  </g>
  <g>
    <rect x="551.28" y="299.15" width="6.82" height="20.51" fill="#fff"></rect>
    <path d="M558.6,320.17h-7.83v-21.52h7.83v21.52Zm-6.82-1.01h5.81v-19.5h-5.81v19.5Z" fill="#002346"></path>
  </g>
  <g>
    <rect x="561.18" y="299.15" width="6.82" height="20.51" fill="#fff"></rect>
    <path d="M568.51,320.17h-7.83v-21.52h7.83v21.52Zm-6.82-1.01h5.81v-19.5h-5.81v19.5Z" fill="#002346"></path>
  </g>
  <g>
    <rect x="571.09" y="299.15" width="6.82" height="20.51" fill="#fff"></rect>
    <path d="M578.41,320.17h-7.83v-21.52h7.83v21.52Zm-6.82-1.01h5.81v-19.5h-5.81v19.5Z" fill="#002346"></path>
  </g>
  <g>
    <rect x="580.99" y="299.15" width="6.82" height="20.51" fill="#fff"></rect>
    <path d="M588.32,320.17h-7.83v-21.52h7.83v21.52Zm-6.82-1.01h5.81v-19.5h-5.81v19.5Z" fill="#002346"></path>
  </g>
  <g>
    <rect x="590.9" y="299.15" width="6.82" height="20.51" fill="#fff"></rect>
    <path d="M598.23,320.17h-7.83v-21.52h7.83v21.52Zm-6.82-1.01h5.81v-19.5h-5.81v19.5Z" fill="#002346"></path>
  </g>
  <g>
    <rect x="600.8" y="299.15" width="6.82" height="20.51" fill="#fff"></rect>
    <path d="M608.13,320.17h-7.83v-21.52h7.83v21.52Zm-6.82-1.01h5.81v-19.5h-5.81v19.5Z" fill="#002346"></path>
  </g>
  <g>
    <rect x="610.71" y="299.15" width="6.82" height="20.51" fill="#fff"></rect>
    <path d="M618.04,320.17h-7.83v-21.52h7.83v21.52Zm-6.82-1.01h5.81v-19.5h-5.81v19.5Z" fill="#002346"></path>
  </g>
  <g>
    <rect x="620.62" y="299.15" width="6.82" height="20.51" fill="#fff"></rect>
    <path d="M627.94,320.17h-7.83v-21.52h7.83v21.52Zm-6.82-1.01h5.81v-19.5h-5.81v19.5Z" fill="#002346"></path>
  </g>
  <g>
    <rect x="630.52" y="299.15" width="6.82" height="20.51" fill="#fff"></rect>
    <path d="M637.85,320.17h-7.83v-21.52h7.83v21.52Zm-6.82-1.01h5.81v-19.5h-5.81v19.5Z" fill="#002346"></path>
  </g>
  <g>
    <rect x="523.89" y="341.87" width="123.89" height="34.88" fill="#e6e7e8"></rect>
    <path d="M648.28,377.26h-124.9v-35.89h124.9v35.89Zm-123.89-1.01h122.88v-33.87h-122.88v33.87Z" fill="#002346"></path>
  </g>
  <g>
    <rect x="527.35" y="346.25" width="6.94" height="26.69" fill="#fff"></rect>
    <path d="M534.79,373.45h-7.95v-27.7h7.95v27.7Zm-6.94-1.01h5.93v-25.68h-5.93v25.68Z" fill="#002346"></path>
  </g>
  <g>
    <rect x="551.28" y="349.66" width="6.82" height="20.51" fill="#fff"></rect>
    <path d="M558.6,370.68h-7.83v-21.52h7.83v21.52Zm-6.82-1.01h5.81v-19.5h-5.81v19.5Z" fill="#002346"></path>
  </g>
  <g>
    <rect x="561.24" y="349.66" width="6.82" height="20.51" fill="#fff"></rect>
    <path d="M568.57,370.68h-7.83v-21.52h7.83v21.52Zm-6.82-1.01h5.81v-19.5h-5.81v19.5Z" fill="#002346"></path>
  </g>
  <g>
    <rect x="571.21" y="349.66" width="6.82" height="20.51" fill="#fff"></rect>
    <path d="M578.53,370.68h-7.83v-21.52h7.83v21.52Zm-6.82-1.01h5.81v-19.5h-5.81v19.5Z" fill="#002346"></path>
  </g>
  <g>
    <rect x="581.17" y="349.66" width="6.82" height="20.51" fill="#fff"></rect>
    <path d="M588.5,370.68h-7.83v-21.52h7.83v21.52Zm-6.82-1.01h5.81v-19.5h-5.81v19.5Z" fill="#002346"></path>
  </g>
  <g>
    <rect x="591.13" y="349.66" width="6.82" height="20.51" fill="#fff"></rect>
    <path d="M598.46,370.68h-7.83v-21.52h7.83v21.52Zm-6.82-1.01h5.81v-19.5h-5.81v19.5Z" fill="#002346"></path>
  </g>
  <g>
    <rect x="601.1" y="349.66" width="6.82" height="20.51" fill="#fff"></rect>
    <path d="M608.43,370.68h-7.83v-21.52h7.83v21.52Zm-6.82-1.01h5.81v-19.5h-5.81v19.5Z" fill="#002346"></path>
  </g>
  <g>
    <rect x="611.06" y="349.66" width="6.82" height="20.51" fill="#fff"></rect>
    <path d="M618.39,370.68h-7.83v-21.52h7.83v21.52Zm-6.82-1.01h5.81v-19.5h-5.81v19.5Z" fill="#002346"></path>
  </g>
  <g>
    <rect x="621.03" y="349.66" width="6.82" height="20.51" fill="#fff"></rect>
    <path d="M628.35,370.68h-7.83v-21.52h7.83v21.52Zm-6.82-1.01h5.81v-19.5h-5.81v19.5Z" fill="#002346"></path>
  </g>
  <g>
    <rect x="630.99" y="349.66" width="6.82" height="20.51" fill="#fff"></rect>
    <path d="M638.32,370.68h-7.83v-21.52h7.83v21.52Zm-6.82-1.01h5.81v-19.5h-5.81v19.5Z" fill="#002346"></path>
  </g>
  <g>
    <rect x="523.89" y="396.43" width="123.89" height="34.88" fill="#e6e7e8"></rect>
    <path d="M648.28,431.82h-124.9v-35.89h124.9v35.89Zm-123.89-1.01h122.88v-33.87h-122.88v33.87Z" fill="#002346"></path>
  </g>
  <g>
    <rect x="527.35" y="400.82" width="6.94" height="26.69" fill="#fff"></rect>
    <path d="M534.79,428.02h-7.95v-27.7h7.95v27.7Zm-6.94-1.01h5.93v-25.68h-5.93v25.68Z" fill="#002346"></path>
  </g>
  <g>
    <rect x="551.28" y="404.24" width="6.82" height="20.51" fill="#fff"></rect>
    <path d="M558.6,425.25h-7.83v-21.52h7.83v21.52Zm-6.82-1.01h5.81v-19.5h-5.81v19.5Z" fill="#002346"></path>
  </g>
  <g>
    <rect x="561.24" y="404.24" width="6.82" height="20.51" fill="#fff"></rect>
    <path d="M568.57,425.25h-7.83v-21.52h7.83v21.52Zm-6.82-1.01h5.81v-19.5h-5.81v19.5Z" fill="#002346"></path>
  </g>
  <g>
    <rect x="571.21" y="404.24" width="6.82" height="20.51" fill="#fff"></rect>
    <path d="M578.53,425.25h-7.83v-21.52h7.83v21.52Zm-6.82-1.01h5.81v-19.5h-5.81v19.5Z" fill="#002346"></path>
  </g>
  <g>
    <rect x="581.17" y="404.24" width="6.82" height="20.51" fill="#fff"></rect>
    <path d="M588.5,425.25h-7.83v-21.52h7.83v21.52Zm-6.82-1.01h5.81v-19.5h-5.81v19.5Z" fill="#002346"></path>
  </g>
  <g>
    <rect x="591.13" y="404.24" width="6.82" height="20.51" fill="#fff"></rect>
    <path d="M598.46,425.25h-7.83v-21.52h7.83v21.52Zm-6.82-1.01h5.81v-19.5h-5.81v19.5Z" fill="#002346"></path>
  </g>
  <g>
    <rect x="601.1" y="404.24" width="6.82" height="20.51" fill="#fff"></rect>
    <path d="M608.43,425.25h-7.83v-21.52h7.83v21.52Zm-6.82-1.01h5.81v-19.5h-5.81v19.5Z" fill="#002346"></path>
  </g>
  <g>
    <rect x="611.06" y="404.24" width="6.82" height="20.51" fill="#fff"></rect>
    <path d="M618.39,425.25h-7.83v-21.52h7.83v21.52Zm-6.82-1.01h5.81v-19.5h-5.81v19.5Z" fill="#002346"></path>
  </g>
  <g>
    <rect x="621.03" y="404.24" width="6.82" height="20.51" fill="#fff"></rect>
    <path d="M628.35,425.25h-7.83v-21.52h7.83v21.52Zm-6.82-1.01h5.81v-19.5h-5.81v19.5Z" fill="#002346"></path>
  </g>
  <g>
    <rect x="630.99" y="404.24" width="6.82" height="20.51" fill="#fff"></rect>
    <path d="M638.32,425.25h-7.83v-21.52h7.83v21.52Zm-6.82-1.01h5.81v-19.5h-5.81v19.5Z" fill="#002346"></path>
  </g>
  <g>
    <rect x="523.89" y="451.53" width="123.89" height="34.88" fill="#e6e7e8"></rect>
    <path d="M648.28,486.92h-124.9v-35.89h124.9v35.89Zm-123.89-1.01h122.88v-33.87h-122.88v33.87Z" fill="#002346"></path>
  </g>
  <g>
    <rect x="527.35" y="455.93" width="6.94" height="26.69" fill="#fff"></rect>
    <path d="M534.79,483.13h-7.95v-27.7h7.95v27.7Zm-6.94-1.01h5.93v-25.68h-5.93v25.68Z" fill="#002346"></path>
  </g>
  <g>
    <rect x="551.28" y="459.34" width="6.82" height="20.51" fill="#fff"></rect>
    <path d="M558.6,480.35h-7.83v-21.52h7.83v21.52Zm-6.82-1.01h5.81v-19.5h-5.81v19.5Z" fill="#002346"></path>
  </g>
  <g>
    <rect x="561.24" y="459.34" width="6.82" height="20.51" fill="#fff"></rect>
    <path d="M568.57,480.35h-7.83v-21.52h7.83v21.52Zm-6.82-1.01h5.81v-19.5h-5.81v19.5Z" fill="#002346"></path>
  </g>
  <g>
    <rect x="571.21" y="459.34" width="6.82" height="20.51" fill="#fff"></rect>
    <path d="M578.53,480.35h-7.83v-21.52h7.83v21.52Zm-6.82-1.01h5.81v-19.5h-5.81v19.5Z" fill="#002346"></path>
  </g>
  <g>
    <rect x="581.17" y="459.34" width="6.82" height="20.51" fill="#fff"></rect>
    <path d="M588.5,480.35h-7.83v-21.52h7.83v21.52Zm-6.82-1.01h5.81v-19.5h-5.81v19.5Z" fill="#002346"></path>
  </g>
  <g>
    <rect x="591.13" y="459.34" width="6.82" height="20.51" fill="#fff"></rect>
    <path d="M598.46,480.35h-7.83v-21.52h7.83v21.52Zm-6.82-1.01h5.81v-19.5h-5.81v19.5Z" fill="#002346"></path>
  </g>
  <g>
    <rect x="601.1" y="459.34" width="6.82" height="20.51" fill="#fff"></rect>
    <path d="M608.43,480.35h-7.83v-21.52h7.83v21.52Zm-6.82-1.01h5.81v-19.5h-5.81v19.5Z" fill="#002346"></path>
  </g>
  <g>
    <rect x="611.06" y="459.34" width="6.82" height="20.51" fill="#fff"></rect>
    <path d="M618.39,480.35h-7.83v-21.52h7.83v21.52Zm-6.82-1.01h5.81v-19.5h-5.81v19.5Z" fill="#002346"></path>
  </g>
  <g>
    <rect x="621.03" y="459.34" width="6.82" height="20.51" fill="#fff"></rect>
    <path d="M628.35,480.35h-7.83v-21.52h7.83v21.52Zm-6.82-1.01h5.81v-19.5h-5.81v19.5Z" fill="#002346"></path>
  </g>
  <g>
    <rect x="630.99" y="459.34" width="6.82" height="20.51" fill="#fff"></rect>
    <path d="M638.32,480.35h-7.83v-21.52h7.83v21.52Zm-6.82-1.01h5.81v-19.5h-5.81v19.5Z" fill="#002346"></path>
  </g>
  <g>
    <rect x="523.89" y="561.22" width="123.89" height="34.88" fill="#e6e7e8"></rect>
    <path d="M648.28,596.6h-124.9v-35.89h124.9v35.89Zm-123.89-1.01h122.88v-33.87h-122.88v33.87Z" fill="#002346"></path>
  </g>
  <g>
    <rect x="527.35" y="565.6" width="6.94" height="26.69" fill="#fff"></rect>
    <path d="M534.79,592.79h-7.95v-27.7h7.95v27.7Zm-6.94-1.01h5.93v-25.68h-5.93v25.68Z" fill="#002346"></path>
  </g>
  <g>
    <path d="M542.46,571.22c0,1.22-.98,2.21-2.2,2.22-1.22,0-2.21-.98-2.22-2.2,0-1.22,.98-2.21,2.2-2.22h0c1.22,0,2.2,.98,2.21,2.2Z" fill="#fff"></path>
    <path d="M540.25,573.94c-1.49,0-2.71-1.21-2.72-2.7,0-.73,.28-1.41,.79-1.92,.51-.52,1.19-.8,1.92-.8,1.5,0,2.72,1.21,2.73,2.7h0c0,1.5-1.21,2.72-2.7,2.73h-.01Zm0-4.42c-.95,0-1.71,.77-1.7,1.71,0,.94,.77,1.7,1.7,1.7h0c.94,0,1.7-.77,1.7-1.71h0c0-.93-.77-1.7-1.7-1.7Z" fill="#002346"></path>
  </g>
  <g>
    <path d="M542.46,580.65c0,1.22-.98,2.21-2.2,2.22-1.22,0-2.21-.98-2.22-2.2,0-1.22,.98-2.21,2.2-2.22h0c1.22,0,2.2,.98,2.21,2.2Z" fill="#fff"></path>
    <path d="M540.24,583.37c-.72,0-1.4-.28-1.91-.79-.52-.51-.8-1.19-.8-1.92,0-1.5,1.21-2.72,2.7-2.73,1.5,0,2.72,1.21,2.73,2.7h0c0,.73-.28,1.41-.79,1.92-.51,.52-1.19,.8-1.92,.8h-.01Zm0-4.42c-.95,0-1.71,.77-1.7,1.71,0,.46,.18,.88,.5,1.2,.32,.32,.77,.5,1.21,.49,.46,0,.88-.18,1.2-.5,.32-.32,.5-.75,.49-1.21h0c0-.94-.77-1.7-1.7-1.7Z" fill="#002346"></path>
  </g>
  <g>
    <rect x="551.28" y="569.01" width="6.82" height="20.51" fill="#fff"></rect>
    <path d="M558.6,590.03h-7.83v-21.52h7.83v21.52Zm-6.82-1.01h5.81v-19.5h-5.81v19.5Z" fill="#002346"></path>
  </g>
  <g>
    <rect x="561.24" y="569.01" width="6.82" height="20.51" fill="#fff"></rect>
    <path d="M568.57,590.03h-7.83v-21.52h7.83v21.52Zm-6.82-1.01h5.81v-19.5h-5.81v19.5Z" fill="#002346"></path>
  </g>
  <g>
    <rect x="571.21" y="569.01" width="6.82" height="20.51" fill="#fff"></rect>
    <path d="M578.53,590.03h-7.83v-21.52h7.83v21.52Zm-6.82-1.01h5.81v-19.5h-5.81v19.5Z" fill="#002346"></path>
  </g>
  <g>
    <rect x="581.17" y="569.01" width="6.82" height="20.51" fill="#fff"></rect>
    <path d="M588.5,590.03h-7.83v-21.52h7.83v21.52Zm-6.82-1.01h5.81v-19.5h-5.81v19.5Z" fill="#002346"></path>
  </g>
  <g>
    <rect x="591.13" y="569.01" width="6.82" height="20.51" fill="#fff"></rect>
    <path d="M598.46,590.03h-7.83v-21.52h7.83v21.52Zm-6.82-1.01h5.81v-19.5h-5.81v19.5Z" fill="#002346"></path>
  </g>
  <g>
    <rect x="601.1" y="569.01" width="6.82" height="20.51" fill="#fff"></rect>
    <path d="M608.43,590.03h-7.83v-21.52h7.83v21.52Zm-6.82-1.01h5.81v-19.5h-5.81v19.5Z" fill="#002346"></path>
  </g>
  <g>
    <rect x="611.06" y="569.01" width="6.82" height="20.51" fill="#fff"></rect>
    <path d="M618.39,590.03h-7.83v-21.52h7.83v21.52Zm-6.82-1.01h5.81v-19.5h-5.81v19.5Z" fill="#002346"></path>
  </g>
  <g>
    <rect x="621.03" y="569.01" width="6.82" height="20.51" fill="#fff"></rect>
    <path d="M628.35,590.03h-7.83v-21.52h7.83v21.52Zm-6.82-1.01h5.81v-19.5h-5.81v19.5Z" fill="#002346"></path>
  </g>
  <g>
    <rect x="630.99" y="569.01" width="6.82" height="20.51" fill="#fff"></rect>
    <path d="M638.32,590.03h-7.83v-21.52h7.83v21.52Zm-6.82-1.01h5.81v-19.5h-5.81v19.5Z" fill="#002346"></path>
  </g>
  <g>
    <rect x="640.96" y="569.01" width="6.82" height="20.51" fill="#fff"></rect>
    <path d="M648.28,590.03h-7.83v-21.52h7.83v21.52Zm-6.82-1.01h5.81v-19.5h-5.81v19.5Z" fill="#002346"></path>
  </g>
  <g>
    <rect x="523.89" y="506.41" width="123.89" height="34.88" fill="#e6e7e8"></rect>
    <path d="M648.28,541.8h-124.9v-35.89h124.9v35.89Zm-123.89-1.01h122.88v-33.87h-122.88v33.87Z" fill="#002346"></path>
  </g>
  <g>
    <rect x="527.35" y="510.81" width="6.94" height="26.69" fill="#fff"></rect>
    <path d="M534.79,538.01h-7.95v-27.7h7.95v27.7Zm-6.94-1.01h5.93v-25.68h-5.93v25.68Z" fill="#002346"></path>
  </g>
  <g>
    <rect x="551.28" y="514.23" width="6.82" height="20.51" fill="#fff"></rect>
    <path d="M558.6,535.24h-7.83v-21.52h7.83v21.52Zm-6.82-1.01h5.81v-19.5h-5.81v19.5Z" fill="#002346"></path>
  </g>
  <g>
    <rect x="561.24" y="514.23" width="6.82" height="20.51" fill="#fff"></rect>
    <path d="M568.57,535.24h-7.83v-21.52h7.83v21.52Zm-6.82-1.01h5.81v-19.5h-5.81v19.5Z" fill="#002346"></path>
  </g>
  <g>
    <rect x="571.21" y="514.23" width="6.82" height="20.51" fill="#fff"></rect>
    <path d="M578.53,535.24h-7.83v-21.52h7.83v21.52Zm-6.82-1.01h5.81v-19.5h-5.81v19.5Z" fill="#002346"></path>
  </g>
  <g>
    <rect x="581.17" y="514.23" width="6.82" height="20.51" fill="#fff"></rect>
    <path d="M588.5,535.24h-7.83v-21.52h7.83v21.52Zm-6.82-1.01h5.81v-19.5h-5.81v19.5Z" fill="#002346"></path>
  </g>
  <g>
    <rect x="591.13" y="514.23" width="6.82" height="20.51" fill="#fff"></rect>
    <path d="M598.46,535.24h-7.83v-21.52h7.83v21.52Zm-6.82-1.01h5.81v-19.5h-5.81v19.5Z" fill="#002346"></path>
  </g>
  <g>
    <rect x="601.1" y="514.23" width="6.82" height="20.51" fill="#fff"></rect>
    <path d="M608.43,535.24h-7.83v-21.52h7.83v21.52Zm-6.82-1.01h5.81v-19.5h-5.81v19.5Z" fill="#002346"></path>
  </g>
  <g>
    <rect x="611.06" y="514.23" width="6.82" height="20.51" fill="#fff"></rect>
    <path d="M618.39,535.24h-7.83v-21.52h7.83v21.52Zm-6.82-1.01h5.81v-19.5h-5.81v19.5Z" fill="#002346"></path>
  </g>
  <g>
    <rect x="621.03" y="514.23" width="6.82" height="20.51" fill="#fff"></rect>
    <path d="M628.35,535.24h-7.83v-21.52h7.83v21.52Zm-6.82-1.01h5.81v-19.5h-5.81v19.5Z" fill="#002346"></path>
  </g>
  <g>
    <rect x="630.99" y="514.23" width="6.82" height="20.51" fill="#fff"></rect>
    <path d="M638.32,535.24h-7.83v-21.52h7.83v21.52Zm-6.82-1.01h5.81v-19.5h-5.81v19.5Z" fill="#002346"></path>
  </g>
  <g>
    <rect x="525.59" y="175.21" width="120.49" height="17.49" fill="#e6e7e8"></rect>
    <path d="M646.58,193.2h-121.5v-18.5h121.5v18.5Zm-120.49-1.01h119.48v-16.48h-119.48v16.48Z" fill="#002346"></path>
  </g>
  <g>
    <rect x="552.1" y="183.94" width="65.61" height="8.74" fill="#fff"></rect>
    <path d="M618.21,193.19h-66.62v-9.75h66.62v9.75Zm-65.61-1.01h64.6v-7.73h-64.6v7.73Z" fill="#002346"></path>
  </g>
  <g>
    <rect x="639.7" y="598.21" width="9.89" height="12.03" fill="#00254F" data-secondary="true"></rect>
    <path d="M650.09,610.73h-10.89v-13.03h10.89v13.03Zm-9.89-1h8.89v-11.03h-8.89v11.03Z" fill="#002346"></path>
  </g>
  <g>
    <rect x="695.25" y="507.57" width="55.47" height="60.78" fill="#00254F" data-secondary="true"></rect>
    <path d="M751.22,568.86h-56.47v-61.78h56.47v61.78Zm-55.47-1h54.47v-59.78h-54.47v59.78Z" fill="#002346"></path>
  </g>
  <g>
    <circle cx="722.98" cy="538.22" r="18.26" fill="#fff"></circle>
    <path d="M722.98,556.98c-10.35,0-18.77-8.42-18.77-18.77s8.42-18.77,18.77-18.77,18.77,8.42,18.77,18.77-8.42,18.77-18.77,18.77Zm0-36.52c-9.79,0-17.75,7.96-17.75,17.75s7.96,17.75,17.75,17.75,17.75-7.96,17.75-17.75-7.96-17.75-17.75-17.75Z" fill="#002346"></path>
  </g>
  <g>
    <circle cx="722.98" cy="538.22" r="9.13" fill="#002346"></circle>
    <path d="M722.98,547.84c-5.31,0-9.63-4.32-9.63-9.63s4.32-9.63,9.63-9.63,9.63,4.32,9.63,9.63-4.32,9.63-9.63,9.63Zm0-18.26c-4.76,0-8.63,3.87-8.63,8.63s3.87,8.63,8.63,8.63,8.63-3.87,8.63-8.63-3.87-8.63-8.63-8.63Z" fill="#002346"></path>
  </g>
  <g>
    <circle cx="702.75" cy="517.01" r="1.7" fill="#fff"></circle>
    <path d="M702.75,519.22c-1.22,0-2.21-.99-2.21-2.21s.99-2.21,2.21-2.21,2.21,.99,2.21,2.21-.99,2.21-2.21,2.21Zm0-3.4c-.66,0-1.19,.54-1.19,1.19s.54,1.19,1.19,1.19,1.19-.54,1.19-1.19-.54-1.19-1.19-1.19Z" fill="#002346"></path>
  </g>
  <g>
    <path d="M743.89,517.01c0,.94-.76,1.7-1.7,1.7s-1.7-.76-1.7-1.7c0-.94,.76-1.7,1.7-1.7h0c.93,0,1.69,.76,1.69,1.69h0Z" fill="#fff"></path>
    <path d="M742.19,519.22c-1.22,0-2.21-.99-2.21-2.21s.99-2.21,2.21-2.21,2.21,.99,2.21,2.2h0c0,1.23-.99,2.22-2.21,2.22Zm.01-3.4c-.67,0-1.2,.54-1.2,1.19s.54,1.19,1.19,1.19,1.19-.54,1.19-1.19h0c0-.66-.53-1.19-1.18-1.19Z" fill="#002346"></path>
  </g>
  <g>
    <path d="M744.29,561.88c0,.94-.75,1.7-1.69,1.71-.94,0-1.7-.75-1.71-1.69,0-.94,.75-1.7,1.69-1.71h0c.93,0,1.69,.76,1.7,1.69Z" fill="#fff"></path>
    <path d="M742.58,564.1c-.58,0-1.13-.23-1.55-.64-.42-.41-.65-.97-.66-1.56,0-1.22,.98-2.21,2.19-2.22,1.22,0,2.21,.98,2.22,2.19h0c0,.59-.22,1.15-.64,1.56-.41,.42-.97,.65-1.56,.66h-.01Zm0-3.4c-.66,0-1.2,.54-1.19,1.2,0,.32,.13,.62,.35,.84s.55,.36,.85,.34c.32,0,.62-.13,.84-.35s.35-.53,.34-.85h0c0-.65-.54-1.19-1.19-1.19Z" fill="#002346"></path>
  </g>
  <g>
    <path d="M704.44,562.57c0,.94-.76,1.7-1.7,1.7s-1.7-.76-1.7-1.7c0-.94,.76-1.7,1.7-1.7h0c.93,0,1.69,.76,1.69,1.69h0Z" fill="#fff"></path>
    <path d="M702.74,564.78c-1.22,0-2.21-.99-2.21-2.21,0-1.22,.99-2.21,2.21-2.21s2.21,.99,2.21,2.2h0c0,1.23-.99,2.22-2.21,2.22Zm.01-3.4c-.67,0-1.2,.54-1.2,1.19,0,.66,.54,1.19,1.19,1.19s1.19-.54,1.19-1.19h0c0-.66-.53-1.19-1.18-1.19Z" fill="#002346"></path>
  </g>
  <rect x="750.72" y="507.57" width="4.47" height="60.78" fill="#002346"></rect>
  <g>
    <rect x="750.72" y="507.57" width="4.47" height="60.78" fill="#002346"></rect>
    <path d="M755.69,568.86h-5.47v-61.78h5.47v61.78Zm-4.47-1h3.47v-59.78h-3.47v59.78Z" fill="#002346"></path>
  </g>
  <g>
    <path d="M476.36,301.19h-164.14c-2.83,0-5.13,2.3-5.13,5.13h0v115.92c0,2.83,2.3,5.13,5.13,5.13h63s4,12.38-8.41,18.8h58.9s-14-4.82-10.44-18.8h61.09c2.83,0,5.13-2.3,5.13-5.13h0v-115.92c0-2.83-2.3-5.13-5.13-5.13h0Z" fill="#0059BC" data-primary="true"></path>
    <path d="M425.71,446.67h-60.95l1.82-.94c10.75-5.56,8.77-15.84,8.26-17.86h-62.62c-3.1,0-5.63-2.53-5.63-5.63v-115.92c0-3.1,2.53-5.63,5.63-5.63h164.14c3.1,0,5.63,2.53,5.63,5.63v115.92c0,3.1-2.53,5.63-5.63,5.63h-60.7c-3.07,13.07,9.66,17.64,10.21,17.83l2.81,.97h-2.98Zm-57.02-1h54.74c-3.86-2.06-11.4-7.6-8.65-18.42l.1-.38h61.48c2.55,0,4.63-2.08,4.63-4.63v-115.92c0-2.55-2.08-4.63-4.63-4.63h-164.14c-2.55,0-4.63,2.08-4.63,4.63v115.92c0,2.55,2.08,4.63,4.63,4.63h63.36l.11,.35c.04,.12,3.63,11.71-7.01,18.45Z" fill="#002346"></path>
  </g>
  <g>
    <path d="M396.46,415.18c1.15,1.31,1.02,3.3-.29,4.45-1.19,1.04-2.96,1.04-4.15,0-.11-.07-.21-.16-.28-.27-1.12-1.34-.93-3.33,.41-4.45,1.17-.97,2.87-.97,4.04,0,.1,.07,.2,.17,.27,.27Z" fill="#fff"></path>
    <path d="M394.09,420.91c-.86,0-1.72-.3-2.41-.9-.1-.06-.26-.2-.37-.37-1.26-1.51-1.05-3.83,.51-5.12,1.36-1.13,3.33-1.13,4.69,0,.12,.08,.24,.2,.34,.34,.63,.73,.95,1.67,.88,2.63-.06,.97-.5,1.87-1.24,2.51-.69,.6-1.55,.9-2.41,.9Zm.07-6.22c-.6,0-1.2,.2-1.69,.61-1.12,.94-1.28,2.61-.34,3.74,.06,.09,.11,.13,.15,.16,1.06,.92,2.56,.92,3.55,.05,.53-.47,.85-1.11,.89-1.81,.05-.7-.19-1.38-.65-1.92l-.03-.04c-.04-.06-.09-.11-.15-.15-.51-.42-1.12-.63-1.73-.63Z" fill="#002346"></path>
  </g>
  <g>
    <path d="M314.96,306.61h158.63c2.02,0,3.66,1.61,3.66,3.6h0v95.98h-165.95v-95.98c0-1.98,1.62-3.6,3.64-3.6,0,0,.01,0,.02,0Z" fill="#fff"></path>
    <path d="M477.74,406.68h-166.94v-96.47c0-1.09,.43-2.12,1.21-2.89,.78-.77,1.82-1.2,2.92-1.2h158.65c2.29,0,4.15,1.84,4.15,4.1v96.47Zm-165.95-.99h164.96v-95.48c0-1.71-1.42-3.11-3.16-3.11h-158.65c-.84,0-1.64,.33-2.23,.92-.59,.59-.92,1.36-.92,2.19v95.48Z" fill="#002346"></path>
  </g>
  <g>
    <path d="M315.12,306.61h158.99c1.73,0,3.14,1.37,3.15,3.08,0,0,0,0,0,0h0v5.18h-165.96v-4.5c.01-2.08,1.72-3.76,3.83-3.77Z" fill="#ebebeb"></path>
    <path d="M477.74,315.36h-166.94v-4.99c.01-2.33,1.95-4.24,4.31-4.25h159c1.99,0,3.62,1.6,3.62,3.56v5.68Zm-165.96-.98h164.98v-4.69c0-1.44-1.2-2.6-2.66-2.6h-158.99c-1.83,0-3.33,1.48-3.34,3.28v4.01Z" fill="#002346"></path>
  </g>
  <g>
    <path d="M317.23,310.74c0,.66-.53,1.19-1.19,1.19s-1.19-.53-1.19-1.19,.53-1.19,1.19-1.19h0c.65,0,1.18,.53,1.18,1.18h.01Z" fill="#fff"></path>
    <path d="M316.04,312.44c-.94,0-1.7-.76-1.7-1.7s.76-1.7,1.7-1.7c.85,0,1.56,.64,1.67,1.46h.02s.01,.24,.01,.24c0,.94-.76,1.7-1.7,1.7Zm0-2.38c-.38,0-.68,.31-.68,.68s.31,.68,.68,.68c.34,0,.62-.25,.67-.57v-.13c0-.37-.3-.67-.67-.67Z" fill="#002346"></path>
  </g>
  <g>
    <path d="M321.67,310.74c0,.66-.53,1.19-1.19,1.19-.66,0-1.19-.53-1.19-1.19s.53-1.19,1.19-1.19c0,0,0,0,0,0,.65,0,1.17,.51,1.18,1.16h0v.03Z" fill="#fff"></path>
    <path d="M320.48,312.44c-.94,0-1.7-.76-1.7-1.7s.76-1.7,1.7-1.7c.47,.01,.88,.17,1.2,.48,.32,.31,.5,.73,.5,1.18v.03c0,.94-.76,1.7-1.7,1.7Zm.02-2.38h0c-.39,0-.7,.31-.7,.68s.31,.68,.68,.68,.68-.31,.68-.68v-.03c0-.17-.07-.34-.2-.46-.12-.12-.29-.19-.47-.19Z" fill="#002346"></path>
  </g>
  <g>
    <path d="M326.12,310.74c0,.66-.53,1.19-1.19,1.19s-1.19-.53-1.19-1.19,.53-1.19,1.19-1.19,1.19,.53,1.19,1.19h0Z" fill="#fff"></path>
    <path d="M324.93,312.44c-.94,0-1.7-.76-1.7-1.7s.76-1.7,1.7-1.7,1.7,.76,1.7,1.7-.76,1.7-1.7,1.7Zm0-2.38c-.38,0-.68,.31-.68,.68s.31,.68,.68,.68,.68-.31,.68-.68-.31-.68-.68-.68Z" fill="#002346"></path>
  </g>
  <path d="M378.3,349.66c0,5.21-3.8,9.71-12.19,9.71-3.95,.07-7.84-1.02-11.18-3.14l2.68-5.22c2.44,1.73,5.35,2.64,8.34,2.61,3.39,0,5.48-1.42,5.48-3.81s-1.5-3.81-6.82-3.81h-7.5l1.51-16.5h17.88v5.44h-12.23l-.46,5.57h2.39c8.66,.06,12.1,3.95,12.1,9.15Z" fill="#0059BC" data-primary="true"></path>
  <path d="M381.06,344.25c0-9.66,5.36-15.16,12.56-15.16s12.56,5.5,12.56,15.16-5.31,15.17-12.56,15.17-12.56-5.53-12.56-15.17Zm18.26,0c0-6.65-2.35-9.42-5.74-9.42s-5.69,2.77-5.69,9.42,2.34,9.43,5.69,9.43,5.78-2.8,5.78-9.43h-.04Z" fill="#0059BC" data-primary="true"></path>
  <path d="M409.5,344.25c0-9.66,5.36-15.16,12.56-15.16s12.56,5.5,12.56,15.16-5.32,15.17-12.56,15.17-12.56-5.53-12.56-15.17Zm18.26,0c0-6.65-2.35-9.42-5.74-9.42s-5.66,2.75-5.66,9.42,2.35,9.43,5.7,9.43,5.78-2.8,5.78-9.43h-.08Z" fill="#0059BC" data-primary="true"></path>
  <path d="M334.93,366.5h1.24v8.66h-1.24v-8.66Z" fill="#002346"></path>
  <path d="M346.21,366.5v8.66h-1l-5.22-6.46v6.46h-1.24v-8.66h1l5.22,6.52v-6.52h1.24Z" fill="#002346"></path>
  <path d="M350.53,367.57h-3v-1.08h7.17v1.08h-3v7.58h-1.23l.06-7.58Z" fill="#002346"></path>
  <path d="M362.36,374.09v1.07h-6.28v-8.66h6.11v1.07h-4.83v2.61h4.35v1h-4.35v2.81l5,.1Z" fill="#002346"></path>
  <path d="M370.16,375.16l-1.87-2.59h-2.72v2.61h-1.21v-8.66h3.37c2.25,0,3.62,1.13,3.62,3,.06,1.24-.73,2.36-1.91,2.73l2.05,2.91h-1.33Zm0-5.64c0-1.23-.83-1.94-2.41-1.94h-2.18v3.91h2.12c1.6,0,2.44-.73,2.44-2l.03,.03Z" fill="#002346"></path>
  <path d="M380.82,366.5v8.66h-1l-5.22-6.46v6.46h-1.24v-8.66h1l5.22,6.52v-6.52h1.24Z" fill="#002346"></path>
  <path d="M388.94,372.94h-4.58l-1,2.17h-1.3l3.91-8.66h1.23l3.91,8.66h-1.31l-.86-2.17Zm-.45-1l-1.86-4.23-1.87,4.24h3.73Z" fill="#002346"></path>
  <path d="M392.47,366.5h1.24v7.59h4.65v1.07h-5.93l.04-8.66Z" fill="#002346"></path>
  <path d="M402.36,374.25l.47-1c.8,.66,1.81,1.01,2.85,1,1.5,0,2.14-.57,2.14-1.3,0-2.11-5.21-.78-5.21-4,0-1.3,1-2.46,3.31-2.46,.98-.02,1.95,.24,2.79,.75l-.42,1c-.71-.46-1.53-.7-2.37-.71-1.47,0-2.1,.63-2.1,1.38,0,2.12,5.22,.79,5.22,3.92,0,1.3-1.07,2.46-3.36,2.46-1.19,.04-2.36-.32-3.32-1.04Z" fill="#002346"></path>
  <path d="M417.13,374.09v1.07h-6.3v-8.66h6.12v1.07h-4.88v2.61h4.38v1h-4.34v2.81l5.02,.1Z" fill="#002346"></path>
  <path d="M424.92,375.16l-1.87-2.59h-2.69v2.61h-1.24v-8.66h3.38c2.26,0,3.62,1.13,3.62,3,.05,1.24-.73,2.36-1.91,2.73l2,2.91h-1.29Zm0-5.64c0-1.23-.83-1.94-2.42-1.94h-2.14v3.91h2.1c1.6,0,2.42-.73,2.42-2l.04,.03Z" fill="#002346"></path>
  <path d="M435.64,366.5l-3.8,8.66h-1.22l-3.81-8.66h1.3l3.13,7.12,3.15-7.12h1.25Z" fill="#002346"></path>
  <path d="M443.04,374.09v1.07h-6.29v-8.66h6.1v1.07h-4.87v2.61h4.38v1h-4.35v2.81l5.03,.1Z" fill="#002346"></path>
  <path d="M450.83,375.16l-1.87-2.59h-2.69v2.61h-1.24v-8.66h3.38c2.26,0,3.62,1.13,3.62,3,.05,1.24-.73,2.36-1.91,2.73l2.06,2.91h-1.35Zm0-5.64c0-1.23-.83-1.94-2.42-1.94h-2.05v3.91h2.1c1.55,0,2.38-.73,2.38-2v.03Z" fill="#002346"></path>
  <path d="M380.08,389.03v1.72h-7.14v-9.18h7v1.71h-4.85v2h4.27v1.66h-4.29v2.13l5.01-.04Z" fill="#002346"></path>
  <path d="M387.66,390.75l-1.78-2.61h-2v2.61h-2.14v-9.18h4c2.46,0,4,1.3,4,3.34,.05,1.28-.71,2.44-1.9,2.91l2.07,3-2.25-.07Zm-2-7.49h-1.74v3.21h1.74c1.3,0,2-.6,2-1.6s-.67-1.61-2-1.61Z" fill="#002346"></path>
  <path d="M397.36,390.75l-1.78-2.61h-2v2.61h-2.12v-9.18h4c2.47,0,4,1.3,4,3.34,.05,1.28-.71,2.44-1.9,2.91l2.07,3-2.27-.07Zm-2-7.49h-1.75v3.21h1.75c1.31,0,2-.6,2-1.6s-.65-1.61-2-1.61Z" fill="#002346"></path>
  <path d="M400.56,386.13c-.16-2.79,1.98-5.18,4.77-5.33s5.18,1.98,5.33,4.77c.16,2.79-1.98,5.17-4.76,5.33h-.29c-2.62,.12-4.85-1.88-5-4.5-.02-.09-.04-.18-.05-.27Zm7.93,0c-.04-1.59-1.36-2.85-2.95-2.81-1.59,.04-2.85,1.36-2.81,2.95,.04,1.56,1.32,2.81,2.88,2.81,1.55,.04,2.83-1.17,2.88-2.72,0-.01,0-.02,0-.03,.01-.07,.01-.13,0-.2Z" fill="#002346"></path>
  <path d="M418.15,390.75l-1.79-2.61h-2v2.61h-2.1v-9.18h4c2.47,0,4,1.3,4,3.34,.05,1.27-.71,2.44-1.89,2.91l2.06,3-2.28-.07Zm-2-7.49h-1.79v3.21h1.74c1.3,0,2-.6,2-1.6s-.67-1.61-2-1.61h.05Z" fill="#002346"></path>
  <path d="M327.36,356.37c-1.12,.02-2.15-.58-2.69-1.56-.56-.97-.56-2.16,0-3.13l9.07-15.54c.56-.97,1.59-1.56,2.71-1.55h0c1.12,0,2.14,.61,2.69,1.58l8.92,15.65c.57,.96,.57,2.16,0,3.12-.56,.97-1.59,1.56-2.71,1.55l-18-.09v-.03Zm9.14-20.87h0c-.79-.02-1.53,.39-1.93,1.07l-9.06,15.54c-.62,1.03-.28,2.37,.76,2.99,0,0,.01,0,.02,.01,.33,.2,.71,.3,1.09,.3h0l18,.08c1.2,.02,2.19-.94,2.21-2.15,0-.39-.1-.78-.29-1.12l-8.93-15.65c-.41-.66-1.15-1.04-1.92-1l.05-.07Z" fill="#0059BC" data-primary="true"></path>
  <path d="M335.08,351.38c0-.63,.51-1.14,1.14-1.14h.07c.62-.02,1.14,.45,1.17,1.07v.08c.02,.63-.47,1.16-1.1,1.18,0,0,0,0,0,0h0c-.64,.02-1.18-.48-1.2-1.12,0,0,0,0,0,0-.04,0-.07-.03-.08-.07Zm.11-9.37h2.17l-.37,7h-1.45l-.35-7Z" fill="#0059BC" data-primary="true"></path>
  <path d="M442.18,356.37c-1.12,.02-2.15-.58-2.69-1.56-.56-.97-.56-2.16,0-3.13l9.07-15.54c.56-.97,1.59-1.56,2.71-1.55h0c1.12,0,2.14,.61,2.69,1.58l8.92,15.65c.57,.96,.57,2.16,0,3.12-.56,.97-1.59,1.56-2.71,1.55l-18-.09v-.03Zm9.19-20.87h0c-.82-.05-1.59,.36-2,1.07l-9,15.55c-.62,1.03-.28,2.37,.76,2.99,0,0,.01,0,.02,.01,.33,.2,.71,.3,1.1,.3h0l18,.08c1.21,0,2.19-.98,2.19-2.19h0c0-.38-.1-.75-.29-1.08l-8.94-15.66c-.41-.66-1.15-1.04-1.92-1l.08-.07Z" fill="#0059BC" data-primary="true"></path>
  <path d="M449.93,351.38c-.01-.62,.48-1.13,1.1-1.14,.01,0,.02,0,.03,0h.07c.62-.02,1.14,.45,1.17,1.07v.08c.02,.63-.47,1.16-1.1,1.18-.01,0-.03,0-.04,0h0c-.64,.02-1.18-.48-1.2-1.12,0,0,0,0,0,0l-.03-.07Zm.1-9.37h2.2l-.37,7h-1.5l-.33-7Z" fill="#0059BC" data-primary="true"></path>
  <g>
    <polygon points="159.62 563.67 159.99 589.78 181.83 601.82 182.15 567.44 177.32 554.75 159.62 563.67" fill="#f2b3c1"></polygon>
    <path d="M182.32,602.66l-22.82-12.59-.38-26.71,18.47-9.3,5.06,13.29v.09s-.33,35.21-.33,35.21Zm-21.84-13.18l20.86,11.51,.31-33.45-4.6-12.09-16.93,8.52,.36,25.51Z" fill="#002346"></path>
  </g>
  <g>
    <path d="M240.2,565.67l4.16,18.45c7.8,3.56,16.79,3.42,24.47-.38l-5.64-27.11-22.99,9.04Z" fill="#f2b3c1"></path>
    <path d="M256.2,587.21c-4.1,0-8.2-.88-12.05-2.63l-.22-.1-4.31-19.11,23.94-9.41,5.84,28.06-.34,.17c-4.06,2.01-8.46,3.02-12.85,3.02Zm-11.41-3.43c7.52,3.36,16.04,3.24,23.47-.31l-5.44-26.15-22.04,8.67,4.01,17.79Z" fill="#002346"></path>
  </g>
  <g>
    <path d="M172.78,71.31c2.46-1.81,4.83-3.75,7.1-5.8,.55-.57,1.47-.58,2.04-.03,.12,.12,.22,.26,.29,.41,.43,.93,.6,2.45-.16,5-3.09-.29-6.21-.15-9.27,.42Z" fill="#f2b3c1"></path>
    <path d="M170.72,72.2l1.76-1.3c2.44-1.79,4.82-3.73,7.06-5.77,.72-.74,1.95-.76,2.72-.02,.16,.16,.3,.34,.4,.55,.59,1.28,.55,3.08-.13,5.36l-.12,.39-.41-.04c-3.05-.29-6.12-.15-9.13,.41l-2.15,.4Zm10.19-6.63c-.25,0-.49,.1-.67,.28-1.79,1.63-3.65,3.18-5.56,4.65,2.32-.29,4.67-.34,7-.15,.5-1.85,.53-3.28,.07-4.26-.04-.09-.11-.18-.19-.26-.18-.18-.42-.27-.65-.27Z" fill="#002346"></path>
  </g>
  <g>
    <path d="M303.02,154.3l-32,28.62s-16.95,9.79-16.19,50.45c0,0-1.13,10.44,1,29.62,.33,3,.74,6.15,1.25,9.54,.92,6.91,1.29,13.88,1.1,20.85-.1,5.89-.71,11.77-1.82,17.56,0,0-1.9,4.77,.42,11.39,.2,.58,.44,1.18,.71,1.79,0,0,9,7.52-5.26,7.54h-1.14c-4.51-1.23-8.8-3.14-12.73-5.66-3.96-2.46-7.55-5.5-10.63-9,0,0-11.48-9.42-25.86-11.08-1.91-.23-3.84-.3-5.77-.21,0,0-1.9,0-4.87-.06-8.35-.21-25.19-1.25-32.41-6-1.88,.61-3.88,.76-5.83,.43-2.25-.5-4.38-2.05-4.71-6.08l1.5-32.75-.83-12.33-2.93-43.4s0-4.14-8.66-10.92c0,0-14.44-11.9-26.94-23.86-6.76-6.46-13-12.94-16-17.56,0,0-14.68-18.45-.75-27.49l52.21-26.73s5.78,3,14.06,17.32c-4.28,2.34-8.18,5.31-11.58,8.8-.86,.9-1.66,1.86-2.4,2.86,0,0-7.16,9-9.79,10.54,0,0,2.89,.49,7.71,4.34,4.71,3.82,10.02,6.82,15.71,8.89l.36,.13c3.44,1.29,7.05,2.06,10.72,2.27l50.22,20.9,14.22-20.28,16.66-8.72s7.53-7.15,14.68-8.66l-20.29-22.59s6.78-13.18,14.31-18.45l36.14,26.36s23.75,13.55,6.41,31.63Z" fill="#0059BC" data-primary="true"></path>
    <path d="M252.23,332.17l-1.27-.02c-4.56-1.24-8.89-3.17-12.87-5.72-4-2.49-7.62-5.55-10.74-9.09-.06-.04-11.48-9.29-25.54-10.91-1.88-.22-3.8-.29-5.69-.21-.02,0-1.93,0-4.9-.06-9.02-.23-25.14-1.3-32.47-5.95-1.88,.57-3.9,.7-5.84,.38-2.15-.48-4.75-1.99-5.13-6.53l1.5-32.81-3.76-55.67c0-.07-.19-4.07-8.47-10.56-.15-.13-14.61-12.06-26.98-23.89-8.18-7.82-13.44-13.59-16.07-17.65-.31-.38-8.12-10.33-6.65-19.36,.59-3.64,2.63-6.6,6.05-8.82l52.48-26.87,.23,.12c.24,.13,6,3.23,14.26,17.51l.26,.44-.45,.25c-4.24,2.32-8.09,5.25-11.46,8.71-.84,.88-1.63,1.82-2.36,2.81-.28,.35-6,7.53-9.07,10.05,1.27,.45,3.66,1.56,6.9,4.14,4.68,3.79,9.91,6.76,15.57,8.81l.36,.13c3.4,1.28,6.96,2.03,10.58,2.24l.16,.04,49.85,20.75,14.06-20.05,16.71-8.74c.7-.66,7.34-6.75,14.04-8.54l-19.96-22.22,.16-.31c.28-.54,6.92-13.35,14.47-18.63l.29-.2,36.43,26.57c.42,.23,11.35,6.58,12.8,16.54,.77,5.33-1.35,10.66-6.32,15.84l-.03,.03-32.08,28.68c-.17,.1-16.69,10.18-15.94,50.01-.01,.17-1.1,10.68,1,29.57,.34,3.08,.75,6.19,1.25,9.52,.93,6.92,1.3,13.96,1.11,20.94-.1,5.9-.72,11.84-1.83,17.64-.04,.14-1.82,4.78,.4,11.13,.18,.52,.4,1.07,.65,1.65,.58,.51,3.58,3.27,2.74,5.59-.67,1.85-3.42,2.75-8.41,2.76Zm-1.07-1h1.07c5.55,0,7.13-1.15,7.47-2.1,.56-1.54-1.64-3.81-2.53-4.56l-.09-.07-.05-.11c-.28-.64-.53-1.26-.73-1.83-2.35-6.72-.49-11.54-.41-11.74,1.07-5.65,1.68-11.53,1.78-17.38,.19-6.92-.18-13.91-1.1-20.77-.5-3.33-.91-6.46-1.25-9.55-2.11-19.01-1.01-29.62-1-29.73-.75-39.77,15.21-50.09,16.39-50.8l31.95-28.57c4.73-4.94,6.76-9.98,6.04-14.98-1.37-9.48-12.24-15.79-12.35-15.85l-35.9-26.18c-6.6,4.81-12.65,15.79-13.7,17.76l20.64,22.97-.85,.18c-6.93,1.46-14.36,8.46-14.44,8.53l-.11,.08-16.55,8.66-14.38,20.51-.37-.15-50.14-20.87c-3.69-.22-7.32-.99-10.78-2.3l-.35-.13c-5.76-2.09-11.09-5.11-15.86-8.97-4.63-3.7-7.45-4.23-7.48-4.24l-1.34-.24,1.17-.69c2.52-1.48,9.58-10.33,9.65-10.42,.74-1,1.56-1.98,2.43-2.89,3.32-3.42,7.1-6.32,11.25-8.65-7.07-12.11-12.29-15.86-13.39-16.56l-51.96,26.6c-3.13,2.03-5.02,4.78-5.56,8.12-1.4,8.6,6.4,18.51,6.47,18.61,2.62,4.03,7.83,9.75,15.95,17.51,12.34,11.81,26.77,23.72,26.91,23.84,8.74,6.84,8.84,11.13,8.84,11.31l3.76,55.7-1.5,32.81c.26,3.09,1.71,4.99,4.32,5.57,1.84,.31,3.77,.17,5.57-.42l.23-.07,.2,.13c7.29,4.79,24.91,5.74,32.15,5.92,2.96,.06,4.85,.06,4.86,.06,1.92-.09,3.89-.02,5.83,.21,14.36,1.66,26,11.1,26.12,11.19,3.11,3.53,6.65,6.52,10.58,8.96,3.88,2.49,8.09,4.37,12.53,5.58Z" fill="#002346"></path>
  </g>
  <g>
    <rect x="175.76" y="78.39" width="55" height="83" rx="27.34" ry="27.34" fill="#f2b3c1"></rect>
    <path d="M203.42,161.89h-.33c-15.35,0-27.83-12.49-27.83-27.83v-28.33c0-15.35,12.49-27.83,27.83-27.83h.33c15.35,0,27.83,12.49,27.83,27.83v28.33c0,15.35-12.49,27.83-27.83,27.83Zm-.33-83c-14.8,0-26.84,12.04-26.84,26.84v28.33c0,14.8,12.04,26.84,26.84,26.84h.33c14.8,0,26.84-12.04,26.84-26.84v-28.33c0-14.8-12.04-26.84-26.84-26.84h-.33Z" fill="#002346"></path>
  </g>
  <g>
    <path d="M171.18,95.01c.83,3.56,2.79,6.74,7.2,6.57,0,0,4.14-.37,6.78-6,0,0,3.39,2.63-.76,7.53,0,0,15.82,3.39,18.45-13.93,0,0,0-2.26,3.77,1.13,0,0,10.54,9,12.42,14.3-.15-3.71-.78-7.39-1.88-10.94,5.38,3.36,11.41,5.55,17.7,6.41,0,0,3.39-27.51-28.24-26.74,0,0,0-4.52,3-5.65,0,0-3.39-.75-7.53,3,0,0-.75-3.77-6-3.39l2.63,3-10.16-4.9s0,5.65,4.51,8.29c-5.98-1.55-12.34,.18-16.71,4.55-4.59,4.27-6.56,10.66-5.18,16.77Z" fill="#002346"></path>
    <path d="M219.67,107.9l-1.1-3.11c-1.81-5.11-12.17-14-12.27-14.09-2.2-1.98-2.82-1.74-2.85-1.73-.08,.03-.1,.2-.1,.23-.84,5.55-3.06,9.58-6.61,12.03-5.51,3.81-12.16,2.44-12.44,2.38l-.82-.17,.54-.64c1.42-1.68,2.07-3.24,1.93-4.64-.08-.77-.39-1.34-.66-1.7-2.73,5.2-6.69,5.62-6.86,5.63-3.96,.15-6.63-2.25-7.73-6.95h0c-1.41-6.27,.63-12.87,5.33-17.25,3.95-3.96,9.57-5.82,15.06-5.08-2.98-2.94-3.02-7.18-3.02-7.39v-.8l8.66,4.18-1.67-1.91,1-.07c4.12-.3,5.7,1.85,6.26,3.04,4.03-3.34,7.28-2.67,7.42-2.64l1.64,.36-1.57,.59c-2.08,.79-2.55,3.52-2.65,4.67,9.94-.16,17.43,2.5,22.29,7.86,7.23,7.98,5.97,18.99,5.92,19.45l-.06,.5-.5-.07c-5.97-.82-11.61-2.77-16.79-5.81,.89,3.2,1.4,6.5,1.54,9.83l.13,3.3Zm-34.35-5.14c1.91,.23,6.79,.46,10.85-2.35,3.31-2.29,5.39-6.09,6.18-11.29,0-.23,.14-.82,.69-1.06,.83-.37,2.07,.23,3.91,1.89,.37,.31,8.13,6.98,11.42,12.24-.28-2.83-.84-5.63-1.69-8.36l-.4-1.28,1.14,.71c5.21,3.25,10.92,5.36,16.98,6.26,.15-2.25,.36-11.46-5.71-18.16-4.74-5.23-12.16-7.77-22.06-7.51h-.51s0-.5,0-.5c0-.16,.03-3.31,1.82-5.14-1.3,.19-3.3,.85-5.52,2.86l-.65,.59-.17-.87c-.03-.12-.64-2.84-4.42-3.01l3.54,4.04-11.59-5.59c.2,1.61,1,5.16,4.2,7.03l3.11,1.82-3.49-.91c-5.79-1.5-12.01,.19-16.23,4.42-4.45,4.15-6.38,10.39-5.05,16.3,.99,4.24,3.24,6.32,6.69,6.18,.13-.01,3.87-.44,6.35-5.71l.27-.57,.49,.38c.05,.04,1.28,1.01,1.47,2.86,.15,1.48-.39,3.06-1.61,4.7Z" fill="#002346"></path>
  </g>
  <g>
    <path d="M170.73,92.57s-7.13,24.58,4.53,35.32c0,0,1.24-18.38,3.12-26.29-.02-.03-6.15-.03-7.65-9.03Z" fill="#002346"></path>
    <path d="M175.69,128.97l-.77-.71c-11.75-10.82-4.97-34.81-4.67-35.83l.61-2.11,.36,2.17c1.26,7.55,5.79,8.5,7.14,8.61l.24,.02,.31,.39-.05,.21c-1.85,7.78-3.09,26.02-3.11,26.21l-.07,1.04Zm-4.98-34.22c-1.33,5.9-4.3,23.14,4.13,32.03,.29-3.96,1.39-17.79,2.93-24.75-1.78-.3-5.44-1.6-7.06-7.28Z" fill="#002346"></path>
  </g>
  <g>
    <path d="M226.41,97.99s.74,2,1.41,4.22c.45,1.58,.45,3.24,0,4.82-1.42,5.07-2.8,17.79,3.44,19.87,0,0-3.85-10.3,2.87-12.53,0,0,1.45-9.39,.7-14.28,.03,0-5.56-.81-8.42-2.1Z" fill="#002346"></path>
    <path d="M232.09,127.7l-.99-.33c-6.5-2.17-5.31-14.97-3.76-20.48,.43-1.49,.43-3.06,0-4.55-.66-2.17-1.39-4.16-1.4-4.18l-.41-1.12,1.09,.49c2.41,1.09,6.9,1.84,8.22,2.05l.46,.07,.03,.36h0c.75,4.91-.64,14.04-.7,14.43l-.05,.3-.29,.1c-1.36,.45-2.35,1.31-2.94,2.54-1.72,3.6,.36,9.28,.38,9.34l.37,.98Zm-4.84-28.84c.28,.8,.68,1.97,1.05,3.21,.48,1.67,.48,3.44,0,5.1-1.52,5.43-2.28,15.95,2.13,18.79-.56-1.95-1.42-6.01,.01-9,.67-1.4,1.76-2.39,3.24-2.95,.23-1.58,1.25-9.13,.71-13.47-1.48-.24-4.76-.83-7.13-1.67Z" fill="#002346"></path>
  </g>
  <g>
    <path d="M223.53,153.11c-.81,13.69-14.66,19.68-14.66,19.68l-3,8.28h-3.39l-2.26-7.71c-.23-.78-.77-1.44-1.51-1.78-11.42-5.19-15.02-16.08-15.98-18.84-.04-.11,.11-.18,.17-.08,5.3,7.36,17.67,8.44,19.62,8.24,7.82-.82,13.01-1.79,21.01-7.79h0Z" fill="#f2b3c1"></path>
    <path d="M206.23,181.57h-4.11l-2.37-8.07c-.19-.66-.64-1.19-1.24-1.46-7.56-3.43-13.01-9.81-16.19-18.96l-.06-.17c-.1-.28,.02-.59,.28-.73,.27-.14,.59-.06,.77,.19,5.3,7.37,17.68,8.19,19.16,8.03,7.6-.8,12.79-1.71,20.76-7.69l.86-.65-.06,1.08c-.76,12.93-13.03,19.2-14.76,20.02l-3.05,8.41Zm-3.37-1h2.66l2.95-8.15,.2-.09c.13-.06,12.84-5.71,14.26-18.16-7.68,5.54-12.88,6.44-20.36,7.23-1.42,.15-12.47-.57-18.58-6.69,3.16,7.83,8.17,13.35,14.92,16.42,.86,.39,1.51,1.15,1.78,2.09l2.16,7.35Z" fill="#002346"></path>
  </g>
  <g>
    <path d="M178.53,147.11l-9.18,4.18,17.7,40.66c5.75-5.08,10.04-11.59,12.45-18.86,.19-.58-.13-1.2-.7-1.41-2.99-1.08-11.64-5.33-16.28-19.57l-4-5Z" fill="#fff"></path>
    <path d="M186.87,192.8l-18.18-41.76,9.99-4.55,4.33,5.47c4.62,14.19,13.39,18.32,15.97,19.25,.83,.3,1.29,1.22,1.01,2.05-2.44,7.35-6.8,13.95-12.6,19.08l-.52,.46Zm-16.85-41.25l17.22,39.56c5.41-4.94,9.48-11.21,11.79-18.17,.1-.31-.07-.66-.39-.77-3.44-1.24-11.92-5.65-16.56-19.8l-3.7-4.62-8.36,3.81Z" fill="#002346"></path>
  </g>
  <g>
    <path d="M208.88,172.75s0,4.52,4.52,10.17l4.89,6.4s13.45-12.75,17.49-36.75c.12-.73-.3-1.45-1-1.69l-6.86-2.31c-.81-.27-1.69,.06-2.13,.78l-2.25,3.75s-.85,7.21-14.66,19.64Z" fill="#fff"></path>
    <path d="M218.23,190.08l-5.23-6.85c-4.57-5.71-4.62-10.29-4.62-10.48v-.23l.17-.15c13.45-12.1,14.48-19.25,14.49-19.32l.07-.2,2.25-3.75c.56-.93,1.7-1.35,2.72-1l6.86,2.31c.94,.33,1.5,1.28,1.34,2.26-4.02,23.89-17.51,36.9-17.64,37.03l-.41,.39Zm-8.83-17.11c.07,.95,.6,4.9,4.4,9.64l4.54,5.95c2.25-2.34,13.37-14.84,16.94-36.06,.08-.49-.2-.96-.67-1.13l-6.86-2.31c-.58-.19-1.22,.04-1.53,.56l-2.2,3.67c-.17,1.01-1.76,8.06-14.62,19.68Z" fill="#002346"></path>
  </g>
  <g>
    <path d="M224.36,268.78l-8.66,10.92s-6.8-6.26-11.85-9.06c-3.84-2.07-6.71-5.57-8-9.73-1.01-3.58-1.44-7.29-1.28-11,0,0,3.39-51.21,3.77-62.88,0,0-3.34-.63-4.44-2.86,.55-.79,1.1-1.65,1.64-2.56,.62,.57,2.67,1.83,6.94-.61h3.39s2.61,1.66,5.63-1.06l1.9,2.95s-2.64,2.63-5.65,2.25c0,.04,1.88,51.63,16.61,83.64Z" fill="#00254F" data-secondary="true"></path>
    <path d="M215.75,280.43l-.4-.36c-.07-.06-6.81-6.25-11.75-8.99-3.97-2.15-6.9-5.7-8.24-10.02-1.03-3.64-1.47-7.4-1.3-11.17,.03-.52,3.32-50.19,3.76-62.47-.99-.26-3.41-1.08-4.37-3.03l-.13-.26,.17-.24c.54-.77,1.08-1.62,1.62-2.53l.31-.53,.45,.42c.46,.43,2.3,1.64,6.35-.68l.12-.07h3.67l.12,.08c.09,.06,2.34,1.41,5.03-1.01l.44-.39,2.44,3.78-.29,.29c-.11,.11-2.52,2.49-5.48,2.43,.26,5.65,2.82,53.08,16.54,82.89l.13,.28-9.19,11.58Zm-21.27-96.23c1.1,1.78,3.92,2.33,3.95,2.34l.42,.08v.43c-.39,11.54-3.75,62.38-3.78,62.9-.16,3.65,.27,7.3,1.26,10.83,1.26,4.05,4.01,7.4,7.76,9.43,4.41,2.44,10.01,7.38,11.55,8.77l8.14-10.26c-14.51-31.81-16.53-83.09-16.53-83.57v-.57l.56,.07c2.17,.28,4.19-1.22,4.94-1.84l-1.36-2.11c-2.68,2.09-5.05,1.11-5.64,.81h-3.13c-3.72,2.09-5.89,1.5-6.93,.84-.4,.65-.8,1.27-1.2,1.86Z" fill="#002346"></path>
  </g>
  <g>
    <path d="M267.24,557.96c-15.81,13.93-35,9.79-35,9.79l-14.31-81.71c-11.3-31.63-16.57-99.41-16.57-97.9s-7.16,79.07-7.16,79.07l-1.84,88.87c-.75,15.44-18.82,10.92-18.82,10.92l-15.12-3.42-3.76-72.67c-3.93-52.23-2.6-143.15-1.93-177.16,.17-8.42,.3-13.35,.3-13.35l-.06-.35c1.95,.33,3.95,.18,5.83-.43,7.22,4.72,24.06,5.76,32.41,6,3,.08,4.87,.06,4.87,.06,5.82-.26,11.38,.99,16.17,2.75,6.86,2.52,13.09,6.52,18.37,11.57,5.74,5.48,12.75,9.5,20.43,11.66h1.14l.41,16.42,1.15,45.89c-.75,48.96,13.49,163.99,13.49,163.99Z" fill="#00254F" data-secondary="true"></path>
    <path d="M238.96,568.79c-4.11,0-6.76-.54-6.83-.56l-.33-.07-14.37-82.04c-6.27-17.53-11.95-50.29-16.04-92.42-1.54,17.61-6.46,70.88-6.7,73.55l-1.84,88.83c-.21,4.24-1.7,7.41-4.44,9.44-5.68,4.22-14.63,2.05-15,1.95l-15.48-3.5-3.78-73.05c-3.88-51.54-2.64-141.09-1.93-177.2,.17-8.42,.3-13.35,.3-13.35l-.17-.95,.7,.12c1.86,.31,3.8,.17,5.59-.41l.23-.07,.2,.13c6.95,4.55,23.13,5.66,32.15,5.92,2.95,.08,4.83,.06,4.85,.06,5.18-.24,10.69,.7,16.34,2.78,6.81,2.5,13.05,6.43,18.55,11.68,5.66,5.41,12.62,9.39,20.15,11.52h1.56l1.57,62.8c-.74,48.39,13.34,162.79,13.49,163.94l.03,.26-.2,.17c-10.02,8.83-21.5,10.46-28.61,10.46Zm-6.29-1.48c2.57,.45,19.77,2.85,34.04-9.56-.76-6.19-14.19-116.49-13.46-163.8l-1.55-61.8-.79-.02c-7.71-2.17-14.85-6.24-20.64-11.78-5.4-5.16-11.52-9.02-18.2-11.47-5.53-2.03-10.91-2.94-15.97-2.72-.04,0-1.93,.02-4.91-.06-9.04-.26-25.21-1.38-32.47-5.95-1.68,.51-3.46,.67-5.21,.47-.03,1.22-.14,5.88-.29,13.13-.71,36.09-1.95,125.6,1.93,177.11l3.74,72.3,14.75,3.34c.1,.02,8.88,2.15,14.18-1.78,2.49-1.85,3.84-4.76,4.03-8.67l1.84-88.86c2.48-26.85,7.16-77.87,7.16-79.06v-.48s.48-.05,.48-.05c.29-.02,.41-.02,.51,.52h.01s0,.04,0,.07c.06,.38,.12,.98,.21,1.97,4.1,43.71,9.9,77.69,16.33,95.7l14.27,81.45Z" fill="#002346"></path>
  </g>
  <path d="M206.62,73.34s13.24-4.71,16.26-10.35c0,0,1.41,9.13-3.06,11.91" fill="#002346"></path>
  <g opacity=".2">
    <path d="M206.62,73.34s13.24-4.71,16.26-10.35c0,0,1.41,9.13-3.06,11.91"></path>
  </g>
  <g>
    <path d="M246.16,114.76s-6.92-1.37-8.91-4.71c-.64-1.13-.51-2.54,.33-3.53,4.1-5.12,7.36-10.86,9.67-17,.3-.76,1.1-1.21,1.91-1.07,2.87,.52,9.24,2.28,11.3,7.9-5.7,5.35-10.52,11.57-14.3,18.41Z" fill="#00254F" data-secondary="true"></path>
    <path d="M246.42,115.33l-.36-.07c-.29-.06-7.16-1.45-9.24-4.94-.75-1.32-.59-2.96,.38-4.11,4.07-5.08,7.29-10.75,9.58-16.85,.39-.99,1.43-1.56,2.46-1.39,2.8,.51,9.52,2.32,11.69,8.22l.11,.31-.24,.23c-5.67,5.33-10.45,11.48-14.2,18.29l-.18,.32Zm2.45-26.4c-.5,0-.96,.31-1.15,.78-2.32,6.19-5.6,11.96-9.74,17.13-.71,.84-.82,2.03-.29,2.97,1.6,2.69,6.81,4.06,8.22,4.39,3.73-6.67,8.42-12.72,13.97-17.98-2.11-5.17-8.23-6.81-10.8-7.27-.07-.01-.14-.02-.2-.02Z" fill="#002346"></path>
  </g>
  <g>
    <path d="M222.12,71.27s0-7.15,4.14-5.27l8.45,6-8.45,3.42-4.14-4.15Z" fill="#f2b3c1"></path>
    <path d="M226.14,76.01l-4.52-4.53v-.21c0-.18,.02-4.4,2.04-5.7,.79-.51,1.73-.51,2.81-.02l9.28,6.58-9.6,3.89Zm-3.52-4.94l3.76,3.77,7.3-2.95-7.71-5.47c-.68-.3-1.28-.31-1.77,0-1.22,.78-1.54,3.46-1.58,4.66Z" fill="#002346"></path>
  </g>
  <g>
    <path d="M188.29,72.06c-.51-.04-1.01-.14-1.49-.29-3.27-1-17.49-4.53-23.79,7.75l-5.28,12.05s0,.01,.02,.03l-.47,.89,7.26,13.8c7.39-1.57,10.55-15.06,10.55-15.06,2.25-10.17,7.53-10.55,7.53-10.55,.86-.11,1.54-.24,2.1-.36,1.58,0,7.47-.28,.88-4.55,0,0,11.67,4.89,13.18,1.13,0,0,8.79-3.3-10.49-4.83Z" fill="#f2b3c1"></path>
    <path d="M164.27,106.86l-7.56-14.37,.56-1.12,5.28-12.05c6.54-12.74,21.47-8.92,24.39-8.03,.45,.14,.92,.23,1.38,.27,11.16,.89,12.78,2.32,12.94,3.46,.17,1.18-1.46,1.98-2.12,2.26-.27,.52-.71,.91-1.33,1.17-2.25,.94-6.56-.17-9.47-1.14,.67,.73,.91,1.38,.74,1.96-.37,1.26-2.54,1.54-4.32,1.55-.61,.14-1.3,.26-2.09,.36-.08,0-4.98,.54-7.11,10.16-.13,.57-3.32,13.82-10.93,15.44l-.37,.08Zm-6.43-14.37l6.96,13.22c6.74-1.85,9.77-14.47,9.8-14.6,2.3-10.41,7.75-10.92,7.98-10.93,.75-.1,1.42-.22,2.02-.35h.11c2.09-.02,3.3-.43,3.42-.84,.04-.14,.1-.92-2.81-2.81l.47-.88c2.36,.99,9.05,3.31,11.65,2.23,.44-.19,.73-.45,.88-.82l.08-.2,.21-.08c.83-.31,1.72-.92,1.67-1.26-.04-.28-.81-1.71-12.03-2.6h0c-.54-.04-1.08-.15-1.6-.31-3.92-1.2-17.19-4.2-23.2,7.5l-5.16,11.78v.02s-.1,.29-.1,.29l-.35,.65Z" fill="#002346"></path>
  </g>
  <path d="M198.78,77.42c-.05,0-.1,0-.15-.02l-9.42-3.01c-.26-.08-.41-.37-.32-.63s.37-.41,.63-.32l9.42,3.01c.26,.08,.41,.37,.32,.63-.07,.21-.26,.35-.48,.35Z" fill="#002346"></path>
  <g>
    <path d="M144.18,615.75l40.29,.38s.38-17.33-3-18.08c0,0,.37-15.44-15.44-13.55,0,0-9,.75-8.66,11.67-.01,0-13.94,7.15-13.19,19.58Z" fill="#0059BC" data-primary="true"></path>
    <path d="M184.96,616.64l-41.25-.39-.03-.47c-.3-4.99,1.62-9.73,5.71-14.07,2.9-3.08,6.21-5.18,7.47-5.83-.18-10.98,9.03-11.87,9.13-11.88,4.88-.59,8.77,.4,11.55,2.92,4.01,3.65,4.4,9.31,4.43,10.78,3.2,1.75,3.06,15.58,3,18.43v.49Zm-40.31-1.38l39.32,.37c.11-7-.61-16.64-2.62-17.09l-.4-.09v-.41c.01-.06,.11-6.55-4.1-10.38-2.55-2.32-6.18-3.21-10.77-2.67-.37,.03-8.54,.86-8.22,11.16l.02,.52h-.39c-1.2,.65-13.17,7.44-12.84,18.58Z" fill="#002346"></path>
  </g>
  <g>
    <polygon points="184.47 619.9 144.18 619.9 144.18 615.75 184.47 616.12 184.47 619.9" fill="#fff"></polygon>
    <path d="M184.97,620.4h-41.3v-5.16l41.3,.38v4.78Zm-40.29-1.01h39.28v-2.76l-39.28-.36v3.12Z" fill="#002346"></path>
  </g>
  <path d="M184.46,616.63c-.09,0-.19-.03-.27-.08-7.76-5.05-3.39-18.11-3.2-18.66,.09-.26,.37-.4,.64-.31,.26,.09,.4,.37,.31,.64-.04,.13-4.3,12.87,2.8,17.5,.23,.15,.3,.46,.15,.69-.1,.15-.26,.23-.42,.23Z" fill="#002346"></path>
  <path d="M248.02,616.17s-.07,0-.11-.01c-.27-.06-.44-.33-.38-.6,3.93-17.16-7.39-24.14-7.51-24.21-.24-.14-.31-.45-.17-.69,.14-.24,.45-.32,.68-.17,.12,.07,12.07,7.39,7.97,25.29-.05,.23-.26,.39-.49,.39Z" fill="#002346"></path>
  <g>
    <path d="M145.41,99.81h0c-.55-.37-.7-1.11-.34-1.66,.09-.13,.2-.25,.34-.34l9.95-5.85c.65-.39,1.49-.18,1.88,.47,.01,.02,.02,.04,.03,.06l10.09,18.8c.55,1.03,.26,2.3-.67,3l-4.5,3.37c-.56,.43-1.36,.33-1.8-.23-.09-.12-.16-.25-.2-.39l-.25-.76s-8.02-13.53-14.53-16.47Z" fill="#00254F" data-secondary="true"></path>
    <path d="M161.41,118.43c-.53,0-1.06-.24-1.41-.69-.13-.16-.22-.35-.28-.54l-.23-.7c-.52-.87-8.17-13.47-14.28-16.22l-.07-.04c-.38-.25-.64-.63-.73-1.08-.09-.44,0-.9,.25-1.28,.13-.19,.29-.35,.48-.48l9.97-5.86c.88-.53,2.03-.24,2.56,.65l10.13,18.88c.67,1.26,.33,2.79-.81,3.64l-4.5,3.37c-.32,.25-.7,.37-1.08,.37Zm-15.75-19.05c6.57,3.01,14.38,16.1,14.71,16.65l.04,.1,.25,.76c.03,.09,.07,.17,.13,.24,.26,.34,.75,.4,1.09,.14l4.51-3.37c.74-.55,.96-1.55,.53-2.36l-10.09-18.8c-.27-.45-.8-.58-1.21-.34l-9.95,5.85c-.06,.04-.12,.1-.17,.18-.1,.16-.14,.34-.1,.53,.03,.17,.13,.32,.27,.42Z" fill="#002346"></path>
  </g>
  <g>
    <path d="M245.46,85.56c-.02-.33-.07-.66-.18-.98-1.13-3.2-2.82-6.17-5-8.77-2.86-3.23-7.05-4.97-11.36-4.73l-21.14,1.07c-.49,.02-.88,.43-.88,.92-.07,5.17,3.48,5.55,6.69,4.85,.29,.79,1.54,1.62,5.51,1.62,0,0,9.79,2.64,9.79,9.42,0,0,3,14.53,9.58,16.3,3.74-4.76,6.71-10.09,8.77-15.78-.53-1.33-1.14-2.64-1.78-3.92Zm-27.09-9.39c.12-.06,.19-.1,.19-.1,2.23-1.2,4.86-1.16,7.04-.03-2.45-.02-4.94,.01-7.23,.12Z" fill="#f2b3c1"></path>
    <path d="M238.67,105.83l-.32-.09c-6.8-1.83-9.81-16.08-9.94-16.68v-.1c-.01-6.06-8.56-8.69-9.37-8.92-3.12,0-5-.52-5.71-1.56-2.29,.44-4.05,.17-5.24-.8-1.14-.93-1.71-2.49-1.68-4.61,0-.76,.6-1.38,1.36-1.41l21.14-1.07c4.49-.24,8.78,1.53,11.76,4.9,2.23,2.67,3.94,5.67,5.1,8.94,.11,.31,.17,.64,.2,1.01,.68,1.35,1.25,2.62,1.76,3.87l.07,.18-.07,.18c-2.09,5.75-5.06,11.11-8.85,15.92l-.2,.26Zm-9.27-16.92c.19,.89,3.08,13.79,8.9,15.78,3.58-4.61,6.41-9.72,8.42-15.19-.49-1.19-1.04-2.41-1.7-3.71l-.05-.2c-.02-.32-.06-.6-.15-.84-1.11-3.15-2.77-6.05-4.91-8.61-2.77-3.12-6.76-4.79-10.95-4.55l-21.14,1.07c-.23,0-.41,.19-.41,.42-.03,1.82,.42,3.1,1.31,3.83,1,.82,2.61,1,4.77,.52l.42-.09,.15,.41c.14,.39,.93,1.3,5.04,1.3l.13,.02c.41,.11,10.11,2.81,10.16,9.85Zm-13.32-12.13l2.25-1.15c2.33-1.25,5.14-1.26,7.51-.03l1.83,.96h-2.07c-2.69-.03-5.11,0-7.2,.11l-2.32,.11Z" fill="#002346"></path>
  </g>
  <path d="M645.91,605.57c-.51,0-1.03-.01-1.54-.06l.09-1c.11,0,11.12,1,19.43-6.12,5.59-4.78,8.73-12.07,9.32-21.67,.35-6.33-.53-12.68-2.61-18.67-2-5.91-4.54-16.82,1-23.34,4.17-4.92,12.1-6.47,23.58-4.61l-.16,1c-11.11-1.81-18.73-.37-22.66,4.26-5.21,6.16-2.74,16.66-.8,22.38,2.11,6.12,3.02,12.59,2.66,19.05-.61,9.89-3.87,17.42-9.68,22.37-6.76,5.77-15.18,6.41-18.63,6.41Z" fill="#002346"></path>
  <path d="M586.55,240.9h-1v-32.23c0-3.16-2.56-5.71-5.72-5.72h-63.88v-1h63.88c3.71,0,6.71,3.01,6.72,6.72v32.23Z" fill="#002346"></path>
  <path d="M582.41,240.9h-1v-28.05c0-3.16-2.56-5.71-5.72-5.71h-60.05v-1h60.05c3.71,0,6.71,3,6.72,6.71v28.05Z" fill="#002346"></path>
  <path d="M538.16,241.32h-1v-16h-21.45v-1h21.45v-3.78c0-2.64,2.14-4.77,4.78-4.77h.86c2.64-.12,4.87,1.92,4.99,4.56,.12,2.64-1.92,4.87-4.56,4.99-.15,0-.29,0-.44,0h-4.64v16Zm0-17h4.64c2.08,.11,3.86-1.5,3.97-3.58,.11-2.08-1.5-3.86-3.58-3.97-.13,0-.26,0-.39,0h-.86c-2.08,0-3.77,1.69-3.78,3.77v3.78Z" fill="#002346"></path>
  <path d="M121.91,143.79c-1.23,0-2.5-.12-3.76-.4-.27-.06-.44-.33-.38-.6,.06-.27,.33-.44,.6-.38,8.68,1.93,17.42-4.26,17.51-4.33,.22-.16,.54-.11,.7,.11,.16,.22,.11,.54-.11,.7-.32,.23-6.91,4.89-14.55,4.89Z" fill="#002346"></path>
  <path d="M201.76,388.61h0c-.28,0-.5-.23-.49-.51l.75-55.67c0-.28,.24-.48,.51-.49,.28,0,.5,.23,.49,.51l-.75,55.67c0,.27-.23,.49-.5,.49Z" fill="#002346"></path>
  <g>
    <g>
      <rect x="290.35" y="517.73" width="38.9" height="5.99" fill="#fff"></rect>
      <path d="M329.75,524.22h-39.91v-7h39.91v7Zm-38.9-1.01h37.89v-4.98h-37.89v4.98Z" fill="#002346"></path>
    </g>
    <g>
      <rect x="339.35" y="517.73" width="128.91" height="5.99" fill="#fff"></rect>
      <path d="M468.76,524.22h-129.92v-7h129.92v7Zm-128.91-1.01h127.9v-4.98h-127.9v4.98Z" fill="#002346"></path>
    </g>
    <g>
      <rect x="339.35" y="528.23" width="128.91" height="5.99" fill="#fff"></rect>
      <path d="M468.76,534.72h-129.92v-7h129.92v7Zm-128.91-1.01h127.9v-4.98h-127.9v4.98Z" fill="#002346"></path>
    </g>
    <g>
      <rect x="339.35" y="538.73" width="128.91" height="5.99" fill="#fff"></rect>
      <path d="M468.76,545.22h-129.92v-7h129.92v7Zm-128.91-1.01h127.9v-4.98h-127.9v4.98Z" fill="#002346"></path>
    </g>
    <g>
      <rect x="290.35" y="528.23" width="38.9" height="5.99" fill="#fff"></rect>
      <path d="M329.75,534.72h-39.91v-7h39.91v7Zm-38.9-1.01h37.89v-4.98h-37.89v4.98Z" fill="#002346"></path>
    </g>
    <g>
      <rect x="290.35" y="538.68" width="38.9" height="5.99" fill="#fff"></rect>
      <path d="M329.75,545.17h-39.91v-7h39.91v7Zm-38.9-1.01h37.89v-4.98h-37.89v4.98Z" fill="#002346"></path>
    </g>
  </g>
  <g>
    <g>
      <rect x="290.35" y="579.06" width="38.9" height="5.99" fill="#e6e7e8"></rect>
      <path d="M329.75,585.56h-39.91v-7h39.91v7Zm-38.9-1.01h37.89v-4.98h-37.89v4.98Z" fill="#002346"></path>
    </g>
    <g>
      <rect x="339.35" y="579.06" width="128.91" height="5.99" fill="#e6e7e8"></rect>
      <path d="M468.76,585.56h-129.92v-7h129.92v7Zm-128.91-1.01h127.9v-4.98h-127.9v4.98Z" fill="#002346"></path>
    </g>
    <g>
      <rect x="339.35" y="589.56" width="128.91" height="5.99" fill="#e6e7e8"></rect>
      <path d="M468.76,596.06h-129.92v-7h129.92v7Zm-128.91-1.01h127.9v-4.98h-127.9v4.98Z" fill="#002346"></path>
    </g>
    <g>
      <rect x="339.35" y="600.06" width="128.91" height="5.99" fill="#e6e7e8"></rect>
      <path d="M468.76,606.56h-129.92v-7h129.92v7Zm-128.91-1.01h127.9v-4.98h-127.9v4.98Z" fill="#002346"></path>
    </g>
    <g>
      <rect x="290.35" y="589.56" width="38.9" height="5.99" fill="#e6e7e8"></rect>
      <path d="M329.75,596.06h-39.91v-7h39.91v7Zm-38.9-1.01h37.89v-4.98h-37.89v4.98Z" fill="#002346"></path>
    </g>
    <g>
      <rect x="290.35" y="600.01" width="38.9" height="5.99" fill="#e6e7e8"></rect>
      <path d="M329.75,606.51h-39.91v-7h39.91v7Zm-38.9-1.01h37.89v-4.98h-37.89v4.98Z" fill="#002346"></path>
    </g>
  </g>
  <g>
    <path d="M237.94,615.37l74.93,.38s-1.88-9.41-21.84-15.44c0,0-4.67-1.98-9.52-4.71-4.44-2.49-7.85-6.36-10.51-10.7-.44-.72-1.13-1.24-2.18-1.11-7.67,3.84-16.68,3.98-24.47,.38,0,0-5.67-3.06-6.42,31.2Z" fill="#0059BC" data-primary="true"></path>
    <path d="M313.48,616.26l-76.05-.39v-.51c.53-23.62,3.35-30.16,5.63-31.48,.85-.5,1.47-.18,1.54-.15,7.67,3.54,16.43,3.41,24.01-.39l.16-.05c1.12-.14,2.04,.33,2.66,1.34,2.93,4.79,6.41,8.33,10.33,10.53,4.77,2.68,9.42,4.66,9.47,4.68,19.97,6.03,22.06,15.41,22.13,15.8l.12,.6Zm-75.03-1.38l73.73,.37c-.83-2.13-4.82-9.48-21.3-14.46-.1-.04-4.8-2.04-9.62-4.75-4.07-2.28-7.67-5.94-10.69-10.88-.4-.66-.92-.94-1.61-.88-7.83,3.89-16.88,4.02-24.82,.35-.02,0-.26-.1-.66,.16-1.33,.87-4.46,5.54-5.04,30.09Z" fill="#002346"></path>
  </g>
  <g>
    <rect x="237.94" y="615.37" width="74.93" height="4.52" fill="#fff"></rect>
    <path d="M313.37,620.4h-75.94v-5.53h75.94v5.53Zm-74.93-1.01h73.92v-3.51h-73.92v3.51Z" fill="#002346"></path>
  </g>
        <svg class="mark-sign" viewBox="0 0 384 42" fill="none" xmlns="http://www.w3.org/2000/svg">
            <g opacity="0.05">
                <path d="M0 0H18.36V4.99H5.8V14.04H16.37V19.03H5.8V31.94H0V0Z" fill="black"></path>
                <path d="M22.54 9.00005H28.03V12.9601C28.03 13.8101 27.94 14.5801 27.94 14.5801H28.03C29.07 11.2901 31.81 8.68005 35.32 8.68005C35.86 8.68005 36.35 8.77005 36.35 8.77005V14.3901C36.35 14.3901 35.77 14.3001 35 14.3001C32.57 14.3001 29.83 15.7001 28.75 19.1101C28.39 20.2301 28.25 21.5001 28.25 22.8401V31.9301H22.54V9.00005Z" fill="black"></path>
                <path d="M50.26 8.45996C56.87 8.45996 60.43 13.27 60.43 19.35C60.43 20.03 60.29 21.56 60.29 21.56H44.45C44.81 25.56 47.91 27.63 51.33 27.63C55.02 27.63 57.94 25.11 57.94 25.11L60.15 29.2C60.15 29.2 56.64 32.49 50.93 32.49C43.33 32.49 38.6 27 38.6 20.48C38.6 13.42 43.41 8.46996 50.25 8.46996L50.26 8.45996ZM54.67 17.64C54.58 14.54 52.64 12.87 50.13 12.87C47.21 12.87 45.18 14.67 44.64 17.64H54.68H54.67Z" fill="black"></path>
                <path d="M75.19 8.45996C81.8 8.45996 85.36 13.27 85.36 19.35C85.36 20.03 85.22 21.56 85.22 21.56H69.38C69.74 25.56 72.84 27.63 76.26 27.63C79.95 27.63 82.87 25.11 82.87 25.11L85.08 29.2C85.08 29.2 81.57 32.49 75.86 32.49C68.26 32.49 63.53 27 63.53 20.48C63.53 13.42 68.34 8.46996 75.18 8.46996L75.19 8.45996ZM79.6 17.64C79.51 14.54 77.57 12.87 75.06 12.87C72.14 12.87 70.11 14.67 69.57 17.64H79.61H79.6Z" fill="black"></path>
                <path d="M90.76 25.11C90.76 25.11 93.28 27.63 97.01 27.63C98.63 27.63 100.02 26.91 100.02 25.56C100.02 22.14 88.86 22.59 88.86 15.21C88.86 10.94 92.69 8.45996 97.64 8.45996C102.59 8.45996 105.33 11.07 105.33 11.07L103.21 15.3C103.21 15.3 101.1 13.32 97.59 13.32C96.1 13.32 94.66 13.95 94.66 15.39C94.66 18.63 105.82 18.22 105.82 25.6C105.82 29.42 102.49 32.48 97.05 32.48C91.34 32.48 88.14 29.1 88.14 29.1L90.75 25.1L90.76 25.11Z" fill="black"></path>
                <path d="M107.28 9H113.31L118.08 23.22C118.53 24.57 118.84 26.68 118.89 26.68H118.98C118.98 26.68 119.34 24.56 119.79 23.22L124.56 9H130.59L122.36 31.95H115.61L107.29 9H107.28Z" fill="black"></path>
                <path d="M142.47 36.54C145.98 36.54 148.95 35.06 148.95 30.96V29.61C148.95 29.07 149.04 28.4 149.04 28.4H148.95C147.6 30.42 145.62 31.5 142.56 31.5C135.99 31.5 132.26 26.19 132.26 19.89C132.26 13.59 135.81 8.45996 142.43 8.45996C147.43 8.45996 149.22 11.39 149.22 11.39H149.36C149.36 11.39 149.31 11.12 149.31 10.76V9.00996H154.67V30.55C154.67 38.42 148.55 41.39 142.57 41.39C139.69 41.39 136.63 40.58 134.43 39.41L136.14 35.05C136.14 35.05 139.02 36.53 142.48 36.53L142.47 36.54ZM149.08 19.94C149.08 14.72 146.52 13.33 143.41 13.33C139.95 13.33 138.01 15.85 138.01 19.72C138.01 23.59 140.08 26.69 143.77 26.69C146.52 26.69 149.08 25.11 149.08 19.94Z" fill="black"></path>
                <path d="M160.96 0H166.63V5.08H160.96V0ZM160.96 9H166.67V31.95H160.96V9Z" fill="black"></path>
                <path d="M172.66 0H178.33V23.94C178.33 26.46 179.18 27.09 180.67 27.09C181.12 27.09 181.52 27.05 181.52 27.05V32.04C181.52 32.04 180.67 32.18 179.72 32.18C176.57 32.18 172.66 31.37 172.66 24.8V0Z" fill="black"></path>
                <path d="M185.44 0H191.11V23.94C191.11 26.46 191.96 27.09 193.45 27.09C193.9 27.09 194.3 27.05 194.3 27.05V32.04C194.3 32.04 193.45 32.18 192.5 32.18C189.35 32.18 185.44 31.37 185.44 24.8V0Z" fill="black"></path>
                <path d="M198.22 9H203.93V22.59C203.93 25.38 204.65 27.27 207.48 27.27C211.62 27.27 213.91 23.62 213.91 19.53V9H219.62V31.95H214.13V29.34C214.13 28.44 214.22 27.72 214.22 27.72H214.13C213.01 30.11 210.08 32.49 206.17 32.49C201.26 32.49 198.21 30.01 198.21 23.76V9H198.22Z" fill="black"></path>
                <path d="M226.62 25.11C226.62 25.11 229.14 27.63 232.87 27.63C234.49 27.63 235.88 26.91 235.88 25.56C235.88 22.14 224.72 22.59 224.72 15.21C224.72 10.94 228.55 8.45996 233.5 8.45996C238.45 8.45996 241.19 11.07 241.19 11.07L239.07 15.3C239.07 15.3 236.96 13.32 233.45 13.32C231.96 13.32 230.52 13.95 230.52 15.39C230.52 18.63 241.68 18.22 241.68 25.6C241.68 29.42 238.35 32.48 232.91 32.48C227.2 32.48 224 29.1 224 29.1L226.61 25.1L226.62 25.11Z" fill="black"></path>
                <path d="M247.27 13.9H244.3V9.36H247.4V2.75H252.98V9.36H258.2V13.9H252.98V22.81C252.98 26.59 255.95 27.13 257.52 27.13C258.15 27.13 258.56 27.04 258.56 27.04V32.03C258.56 32.03 257.89 32.17 256.81 32.17C253.61 32.17 247.27 31.23 247.27 23.53V13.9Z" fill="black"></path>
                <path d="M263.25 9.00005H268.74V12.9601C268.74 13.8101 268.65 14.5801 268.65 14.5801H268.74C269.78 11.2901 272.52 8.68005 276.03 8.68005C276.57 8.68005 277.06 8.77005 277.06 8.77005V14.3901C277.06 14.3901 276.48 14.3001 275.71 14.3001C273.28 14.3001 270.54 15.7001 269.46 19.1101C269.1 20.2301 268.96 21.5001 268.96 22.8401V31.9301H263.25V9.00005Z" fill="black"></path>
                <path d="M292.59 17.55H293.35V17.24C293.35 14.22 291.46 13.19 288.94 13.19C285.66 13.19 282.64 15.39 282.64 15.39L280.48 11.3C280.48 11.3 284.03 8.46997 289.48 8.46997C295.51 8.46997 299.02 11.8 299.02 17.6V31.95H293.76V30.06C293.76 29.16 293.85 28.44 293.85 28.44H293.76C293.76 28.44 292.01 32.49 286.79 32.49C282.7 32.49 279 29.93 279 25.34C279 18.05 288.85 17.56 292.59 17.56V17.55ZM288.22 28.03C291.23 28.03 293.39 24.79 293.39 22V21.46H292.4C289.48 21.46 284.75 21.86 284.75 25.06C284.75 26.59 285.87 28.03 288.21 28.03H288.22Z" fill="black"></path>
                <path d="M305.82 13.9H302.85V9.36H305.95V2.75H311.53V9.36H316.75V13.9H311.53V22.81C311.53 26.59 314.5 27.13 316.07 27.13C316.7 27.13 317.11 27.04 317.11 27.04V32.03C317.11 32.03 316.44 32.17 315.36 32.17C312.16 32.17 305.82 31.23 305.82 23.53V13.9Z" fill="black"></path>
                <path d="M321.79 0H327.46V5.08H321.79V0ZM321.79 9H327.5V31.95H321.79V9Z" fill="black"></path>
                <path d="M344.7 8.45996C351.72 8.45996 357.34 13.46 357.34 20.47C357.34 27.48 351.72 32.48 344.74 32.48C337.76 32.48 332.1 27.53 332.1 20.47C332.1 13.41 337.72 8.45996 344.7 8.45996ZM344.74 27.63C348.43 27.63 351.53 24.75 351.53 20.48C351.53 16.21 348.43 13.33 344.74 13.33C341.05 13.33 337.9 16.25 337.9 20.48C337.9 24.71 341 27.63 344.74 27.63Z" fill="black"></path>
                <path d="M361.93 8.99996H367.42V11.66C367.42 12.51 367.33 13.23 367.33 13.23H367.42C368.41 11.29 370.93 8.45996 375.56 8.45996C380.64 8.45996 383.52 11.12 383.52 17.19V31.95H377.85V18.36C377.85 15.57 377.13 13.68 374.21 13.68C371.29 13.68 368.9 15.61 368.04 18.36C367.73 19.3 367.63 20.34 367.63 21.42V31.95H361.92V8.99996H361.93Z" fill="black"></path>
            </g>
        </svg>        
    </svg>